<?xml version="1.0" encoding="UTF-8"?>
<svg xmlns="http://www.w3.org/2000/svg" xmlns:v="https://vecta.io/nano" width="166.277" height="192" viewBox="0 0 43.994 50.8">
   <path d="M0 12.676v25.416L22.011 50.8l22.011-12.708V12.676L22.011-.032 0 12.676" fill="#333131" />
   <path d="M18.304 36.052v4.187h-.824v-4.187h.824m.73 1.222v2.965h.831v-2.965zm.906-.82c0 .569-.981.569-.981 0s.981-.569.981 0m1.56 2.305c0 .533.45.869.974.869.531 0 .954-.353.954-.869 0-.533-.423-.862-.954-.862-.525 0-.974.347-.974.862zm-.054-2.707v1.635c.197-.305.749-.473 1.104-.473.981 0 1.71.527 1.71 1.545 0 .97-.743 1.545-1.731 1.545-.409 0-.824-.12-1.083-.473l-.054.407h-.777v-4.187h.831m6.615 2.708c0-.832-.613-1.24-1.376-1.24-.783 0-1.363.521-1.363 1.246s.593 1.246 1.363 1.246c.763 0 1.376-.419 1.376-1.252zm-3.086 2.714V37.28h.327v.701c.266-.449.804-.743 1.458-.743.913.03 1.635.569 1.635 1.521 0 .995-.763 1.533-1.71 1.533-.572 0-1.104-.245-1.39-.737v1.917h-.32m4.176-4.312c0-.892.968-1.168 1.826-1.168.879 0 1.833.318 1.839 1.222 0 .856-.981 1.204-1.826 1.204-.695.006-1.506.15-1.506.868v.641h3.284v.311h-3.645v-.946c0-.928.974-1.168 1.853-1.168.62 0 1.499-.204 1.499-.91 0-.737-.845-.94-1.499-.94-.634 0-1.465.192-1.465.886h-.361m7.654 1.599c0-.832-.614-1.24-1.377-1.24-.783 0-1.362.521-1.362 1.246s.593 1.246 1.362 1.246c.763 0 1.377-.419 1.377-1.252zm-3.087 2.714V37.28h.327v.701c.266-.449.804-.743 1.458-.743.913.03 1.635.569 1.635 1.521 0 .995-.763 1.533-1.711 1.533-.572 0-1.104-.245-1.39-.737v1.917h-.32" fill="#fff" />
   <path d="M29.849 25.939h-.001.001.001 0 0" fill="#9b1d4b" />
   <path d="M29.849 25.939h0v-.437l3.541-2.035.376.219-3.884 2.234-.033.019h0-.001" fill="#b01e59" />
   <path d="M29.849 25.939h-.001 0l-.377-.22.377-.216h.001v.437" fill="#ba1b5d" />
   <path d="M25.932 28.192h0 0 0 0 0 0 0 0 0m.001 0h0l.033-.019.914-.526 2.969-1.708h0l-3.916 2.252" fill="#8a1a44" />
   <path d="M25.932 28.192h0 0 0 0m.947-.545l2.969-1.708h.001l-2.969 1.708" fill="#961947" />
   <path d="M29.85 30.472h0 0 0 0m0 0h0 0v-4.532h0 0l.033-.019 3.884-2.234h0v4.533h0l-3.917 2.253" fill="#9b1d4b" />
   <path d="M18.095 23.19h0 0 0 0" fill="#a7c61d" />
   <path d="M14.178 25.884h-.001 0 .001.001 0 0" fill="#9bb522" />
   <path d="M18.096 28.164h0 0 0" fill="#95a423" />
   <g fill="#bb2759">
      <path d="M22.012 25.472h0 0 0 0" />
      <path d="M22.013 25.472h0 0 0 0" />
   </g>
   <path d="M18.096 28.164h0v-.001h.001 0" fill="#962143" />
   <path d="M25.931 28.192h0 0 0 0 0" fill="#a6194d" />
   <path d="M25.932 28.192h0 0 0m0 0h0 0 0" fill="#a71a4d" />
   <path d="M29.848 25.939l-.377-.22h.001l.377.22h-.001" fill="#4d9bbc" />
   <path d="M29.848 25.938l-.377-.22h0l.377.22" fill="#4f9cc0" />
   <path d="M25.932 28.192h0 0 0 0m0 0h0l.947-.545-.914.526-.033.019h0 0" fill="#4c9abc" />
   <path d="M25.932 28.192h0 0v-.439l3.539-2.033.377.22-2.969 1.708-.947.545h0 0 0" fill="#4d9bbd" />
   <g fill="#4d9bbe">
      <path d="M25.931 28.191l-.379-.22.378-.217h.001v.438" />
      <path d="M25.932 28.192h0 0 0-.001v-.438l.001-.001v.439h0 0" />
   </g>
   <path d="M22.015 30.445h0 0 0 .001 0 0 0m.391-.225l1.696-.976 1.829-1.052h0l-3.525 2.028" fill="#3c87ae" />
   <path d="M25.932 28.192h0 0 0 0 0" fill="#3e84af" />
   <path d="M24.102 29.244l1.829-1.052h.001l-1.829 1.052" fill="#3f84b0" />
   <path d="M25.931 28.192h-.001 0 0 0" fill="#4084b1" />
   <path d="M25.932 32.725v-4.532h0l3.916 2.279v-4.532h0 0 0 0v4.532l.001.001-3.917 2.253" fill="#337a9b" />
   <path d="M29.849 25.939h0 0 .001 0 0" fill="#37789e" />
   <path d="M29.849 30.471l-3.916-2.279h0 0l.033-.019 3.883-2.234h0v4.532" fill="#34789c" />
   <path d="M29.85 30.472l-.001-.001v-4.532h0 0 0 0v4.532h0 0" fill="#35789d" />
   <path d="M25.932 28.192h0 0 0" fill="#34789c" />
   <path d="M14.177 25.883l-3.917-2.279.384-.221 3.532 2.057h0 .001 0 0v.442" fill="#84bbc0" />
   <path d="M14.178 25.884h0-.001-.001v-.442h0 .001l.383.223-.382.22h0 0" fill="#8ec9bd" />
   <path d="M14.178 30.417h0l-3.916-2.279-.002-.001v-4.532h0l3.918 2.28h0v4.532" fill="#6bb2bb" />
   <path d="M14.179 30.417h0-.001v-4.532h0 0 0v4.532l.001.001h-.001" fill="#479aa2" />
   <path d="M18.095 28.163l-3.917-2.279h0l3.916 2.279h0m-3.917-2.279h0 0 0" fill="#4ea89e" />
   <path d="M18.096 28.164l-.001-.001h0 0 0l.001.001h0" fill="#4da59e" />
   <path d="M18.096 28.164l-.001-.001h0 .001v.001" fill="#4d99a3" />
   <path d="M14.521 25.687l.04-.023h0l-.04.023" fill="#8ec9bd" />
   <path d="M18.097 28.164h0-.001v-.44l.381.222-.38.218" fill="#8dbac3" />
   <path d="M14.179 25.884h0l.382-.22h0l-.04.023-.309.178-.033.019" fill="#8fcccf" />
   <g fill="#87c8cb">
      <path d="M18.095 28.163l-3.916-2.279.033-.019.309-.178.04-.023 3.532 2.058h0 0l.002.001v.44" />
      <path d="M18.095 28.163h0v-.44h0v.44" />
   </g>
   <path d="M18.096 28.163h-.001v-.44h.001v.44" fill="#87c7cc" />
   <path d="M18.096 32.697l-3.916-2.279h-.001l3.916-2.252h0v4.532" fill="#6bb2bb" />
   <path d="M14.178 25.884h0" fill="#75c2b8" />
   <path d="M14.179 30.417l-.001-.001v-4.532h.001l3.916 2.279h0 0l.001.001h0 0l-3.916 2.252" fill="#6ebec7" />
   <g fill="#71c0c8">
      <path d="M18.095 28.164h0 0 0m0 0h0l-3.916-2.279h-.001 0 0l3.917 2.28" />
      <path d="M18.096 28.165h0l-.001-.001h0 0l.001.001h0" />
   </g>
   <path d="M18.096 32.697h0v-4.532h0v.001l3.916 2.279h0 0 0 0l-3.917-2.279h0v4.532" fill="#479aa2" />
   <path d="M18.096 28.165h0 0 0 0 0" fill="#4da59e" />
   <path d="M22.013 30.444l-3.916-2.279v-.001l.38-.219h0l-.38.219 3.917 2.28" fill="#4c96a3" />
   <path d="M18.097 28.164h0 0l.033-.019.347-.2h0l-.38.219" fill="#4d99a3" />
   <path d="M22.014 30.444h0 0 0 0" fill="#4d98a4" />
   <path d="M22.014 30.444h-.001 0 .001 0" fill="#49a3ad" />
   <path d="M22.014 30.444h-.001 0 .001" fill="#4aa3ae" />
   <path d="M25.931 28.191l-.379-.221h0l.379.221h0 0" fill="#4d9bbc" />
   <g fill="#4d9bbe">
      <path d="M25.931 28.191l-.379-.221h0l.379.221" />
      <path d="M25.931 28.191h0 0 0" />
      <path d="M25.931 28.191h0 0 0 0" />
   </g>
   <g fill="#4ca7c9">
      <path d="M25.931 28.191l-.379-.221h0l.379.22h0" />
      <path d="M25.931 28.191h0 0 .001 0" />
   </g>
   <path d="M22.015 30.445h-.001 0l2.088-1.201-1.696.976-.358.206-.033.019h0 0" fill="#4ba5c6" />
   <g fill="#4ba6c7">
      <path d="M22.015 30.444v-.442l3.537-2.032.379.221h0 0l-1.829 1.052-2.088 1.201" />
      <path d="M25.931 28.191h0 0 0 0" />
   </g>
   <g fill="#4ca7c5">
      <path d="M22.013 30.444l-3.917-2.279.38-.219 3.534 2.058h0 .001 0l.002-.001v.44" />
      <path d="M22.014 30.444h0v-.44h0v.441" />
   </g>
   <path d="M22.015 30.444h0-.001v-.441h.001v.442" fill="#4ca8c6" />
   <path d="M22.014 34.977l-3.916-2.279-.002-.001h0 .001 0l3.917-2.253h0v4.532" fill="#3c87ae" />
   <path d="M22.014 30.445h0 0 0 0" fill="#3f8fb9" />
   <path d="M18.097 32.697h0-.001v-4.532h0l3.917 2.279h0 0l-3.917 2.253" fill="#4091b8" />
   <path d="M22.014 30.444h0 0 .001 0" fill="#4092ba" />
   <path d="M22.015 34.977h-.001v-4.532h.001l3.916 2.279h0v-4.532h0v4.532h.001l-3.917 2.253" fill="#337a9b" />
   <path d="M25.932 28.192h0 0 0 0 0 0" fill="#34789c" />
   <path d="M25.932 28.192h0 0 0m0 0h0 0 0 0" fill="#3786a9" />
   <path d="M25.932 32.724h0l-3.916-2.279h-.001 0 0 0 0l.033-.019.358-.206 3.525-2.028h0v4.532" fill="#3683a6" />
   <path d="M25.932 28.192h0 0 0" fill="#3783a7" />
   <path d="M25.932 32.725h-.001v-4.532h.001v4.532" fill="#3681a4" />
   <path d="M25.932 28.192h-.001 0 0 0 0" fill="#3682a5" />
   <path d="M25.932 18.246h0 0 0 0 0" fill="#dc2f93" />
   <path d="M25.932 18.246h0 0 0 0" fill="#e53692" />
   <path d="M29.849 20.969h-.001 0 .001 0" fill="#da0f62" />
   <path d="M29.849 20.969h0 0 0v-.443h.001 0l3.533-2.032.383.223-3.917 2.252" fill="#92429b" />
   <path d="M29.849 20.969h-.001 0l-.39-.227.38-.221.01.006h0 0v-.012.012h0v.443" fill="#a539a0" />
   <path d="M25.931 23.22h0 0 0 0" fill="#762083" />
   <path d="M25.931 23.22h0 0 0" fill="#772183" />
   <path d="M29.472 21.186h0l.377-.217h0l-.377.217" fill="#6a2380" />
   <path d="M25.964 23.201h0l.863-.496 2.644-1.519h0l-3.508 2.015" fill="#762083" />
   <path d="M25.931 23.22h0 0 0" fill="#7b1e84" />
   <path d="M29.471 21.186h-.001l.377-.217h.001l-.377.217" fill="#7a1f83" />
   <path d="M26.827 22.705l2.644-1.52h.001l-2.644 1.519" fill="#7b1e84" />
   <path d="M33.39 23.467l-3.541-2.06v-.438h0-.001 0 0l.033-.019.843-.484 3.043-1.748h0l-.002 4.533h0l-.376.216" fill="#7f2c8f" />
   <path d="M29.849 25.502v-2.266l.001-1.829 3.541 2.06-3.541 2.035" fill="#8c2793" />
   <path d="M29.848 25.502v-.001l.001-2.266-.001 2.267" fill="#8e2793" />
   <path d="M14.178 20.908h-.001 0 .001.001 0 0" fill="#a8c41d" />
   <path d="M18.095 23.19h0 0 0 0" fill="#adc11c" />
   <path d="M22.015 20.499h0 0 0 0 0 0" fill="#f09814" />
   <g fill="#ec8b14">
      <path d="M18.096 23.19h0 0 0 0" />
      <path d="M18.095 23.19h0 0 0 .001 0m.033-.019h0l.346-.199h0l-.346.199" />
   </g>
   <path d="M25.93 23.22h0 0 0 0" fill="#f28b18" />
   <path d="M25.93 23.22h0 0 0" fill="#f6861b" />
   <path d="M25.931 23.22h0 0 .001 0" fill="#ec8b19" />
   <path d="M25.931 23.22h-.001 0 0 .001 0" fill="#ed8a19" />
   <path d="M29.848 20.969l-.39-.227h0l.39.227h0" fill="#a539a0" />
   <path d="M29.848 20.969l-.39-.227h0l.39.227h0" fill="#a040a5" />
   <g fill="#9b3da3">
      <path d="M25.931 23.22h0 0l.896-.515-.896.515m3.54-2.034l-.388-.226.375-.218.39.227-.377.217" />
      <path d="M25.931 23.22h0v-.44l.002-.001v-.001-.012l.021.012h.001 0l3.128-1.819.388.226-3.54 2.034" />
   </g>
   <g fill="#a74898">
      <path d="M25.93 23.219l-.379-.221.379-.218v.439" />
      <path d="M25.93 23.219h0v-.439h0v.439" />
   </g>
   <g fill="#a64899">
      <path d="M25.931 23.22h0v-.44h0v.44" />
      <path d="M25.931 23.22h-.001 0 0v-.439h.001v.44" />
   </g>
   <g fill="#772183">
      <path d="M25.553 23.438h0l.378-.217h0l-.378.217" />
      <path d="M25.552 23.438h0 .001 0-.001" />
   </g>
   <g fill="#772083">
      <path d="M25.552 23.438h0 0 0 0" />
      <path d="M22.334 25.287l1.416-.814 1.802-1.035h0l-3.218 1.849" />
   </g>
   <g fill="#772283">
      <path d="M22.012 25.472h0 0 0" />
      <path d="M22.013 25.472h0 0 0 0 0 0 0 0 0" />
   </g>
   <path d="M22.013 25.472h0 0 0" fill="#772183" />
   <path d="M25.931 23.221h0 0 0 0" fill="#712187" />
   <g fill="#7f287e">
      <path d="M25.552 23.438h-.001l.378-.217h0 0 0l-.378.217" />
      <path d="M25.551 23.438h-.001.001.001-.001" />
      <path d="M25.552 23.438h-.001 0 .001 0" />
      <path d="M23.75 24.473l1.801-1.035h.001l-1.802 1.035" />
   </g>
   <path d="M25.93 23.22h0 0 0" fill="#7e287f" />
   <path d="M25.931 23.658h0 0v-.437h0l.378.22-.378.217" fill="#8c2793" />
   <path d="M25.932 23.659h0 0 0 0l.033-.019.345-.199h0l-.378.217" fill="#8b2892" />
   <path d="M29.471 25.719l-3.539-2.06.378-.217 3.537 2.06h0 0 .001l-.377.216" fill="#8e2793" />
   <g fill="#8c2892">
      <path d="M25.931 23.659h0 0 0 0" />
      <path d="M25.931 23.659h0 0 0 0 0 0 0" />
   </g>
   <g fill="#80339c">
      <path d="M29.47 25.719l-3.539-2.059v-.001l3.539 2.06h-.001m-3.539-2.06h0 0 0" />
      <path d="M29.471 25.719l-3.539-2.06h0 0l3.539 2.06" />
      <path d="M25.932 27.752V23.66l3.539 2.059-3.539 2.033" />
      <path d="M25.93 27.753h0l.001-2.72-.001 2.72m.002-4.093h0 0 0 0 0 0 0v.001" />
      <path d="M25.932 23.659h0 0 0" />
      <path d="M25.931 27.753v-2.72-1.374h0l-.001 4.093" />
   </g>
   <path d="M26.484 23.341l3.364-1.936-.376-.219.377-.217v.437l-3.365 1.935" fill="#862996" />
   <g fill="#872996">
      <path d="M26.309 23.441l-.378-.22h0v-.001h0 0-.001 0 0l.033-.019 3.508-2.015.376.219-3.538 2.036" />
      <path d="M26.31 23.441h0l.174-.1 3.365-1.935h0l-3.539 2.035" />
      <path d="M29.847 25.502l-3.537-2.06 3.539-2.035-.002 4.096" />
   </g>
   <path d="M29.85 21.407l-.001-.001h0 0v-.437h.001 0v.438" fill="#872a97" />
   <g fill="#892a97">
      <path d="M29.849 21.406h0 0 0 0" />
      <path d="M29.849 23.235v-1.829l.001.001-.001 1.829" />
      <path d="M29.848 25.502h-.001 0l.002-4.095h0l-.001 4.096" />
   </g>
   <path d="M14.177 20.907l-3.916-2.281.376-.216 3.54 2.06v.437" fill="#dbcc0f" />
   <path d="M14.178 20.908h0-.001-.001v-.437h.001 0 0 .001 0 0l.001.001.376.219-.378.217h0 0" fill="#e7dc09" />
   <path d="M10.644 23.383l-.383-.223-.002-.001.002-4.532 3.917 2.282h0v.443h0 0 0 0l-3.533 2.032" fill="#e0a912" />
   <path d="M14.177 21.352h0 0 0" fill="#edb50f" />
   <path d="M14.176 25.441h0l-3.532-2.057 3.533-2.032v1.356l-.001 2.733m.002-4.089h0 0 0 0" fill="#e9b718" />
   <path d="M14.177 22.708v-1.356h0 0 0l-.001 1.356" fill="#eab818" />
   <path d="M14.178 21.352h0 0m0 0v-.443h0 0 0v.443h0" fill="#d29e16" />
   <path d="M14.178 21.351h0 0 0 0 0 0" fill="#deab12" />
   <path d="M14.177 25.441h0-.001l.001-2.733v.919l-.001 1.813h.001 0 0m.001-4.089h0 0 0 0 0" fill="#daab1d" />
   <g fill="#dcac1d">
      <path d="M14.178 21.352h0 0 0" />
      <path d="M14.177 25.441h0 0 0m0-1.814v-.919l.001-1.356h0l-.001 2.275" />
   </g>
   <path d="M14.561 21.131l-.383-.223h0l.383.223h0m-.383-.223h0" fill="#dfac12" />
   <path d="M18.094 23.189l-3.533-2.058h0l3.533 2.058h0" fill="#e0ac12" />
   <g fill="#dfac12">
      <path d="M18.094 23.189h0 0 0 0" />
      <path d="M18.095 23.19h-.001 0 0 0 .001 0" />
   </g>
   <path d="M18.095 23.189h-.001 0 .001 0" fill="#e5a511" />
   <path d="M14.521 20.712l.036-.021h0l-.036.021" fill="#edab0f" />
   <g fill="#f4a40e">
      <path d="M18.096 23.189h0 0l.379-.218h0l-.379.218" />
      <path d="M18.096 23.189h-.001 0v-.439h.001 0 0l.002.001.377.219-.379.218" />
   </g>
   <path d="M14.179 20.908h0l.378-.217h0l-.036.021-.342.196" fill="#f3ac0d" />
   <g fill="#f2a80e">
      <path d="M14.561 21.131l-.383-.223.033-.019.309-.177.036-.021.383.223-.378.217" />
      <path d="M18.094 23.189l-3.533-2.058.378-.217 3.155 1.836v.439" />
      <path d="M18.094 22.794v-.044.044" />
      <path d="M18.094 23.189h0v-.395.395" />
      <path d="M18.095 23.189h0v-.439h0v.439" />
   </g>
   <path d="M18.095 23.189h-.001v-.439h.001v.439" fill="#f3a80e" />
   <path d="M18.094 23.631h0 0 0" fill="#dd7c18" />
   <path d="M18.095 23.632h-.001 0 0 0v.001" fill="#e68416" />
   <path d="M18.094 23.63l-.38-.221.38-.219v.44" fill="#eb8a14" />
   <path d="M18.095 23.631h0 0 0v-.44h.001 0 0 0 0v.441" fill="#ec8b14" />
   <path d="M15.113 25.346l2.981-1.715h0 0 .001l-2.982 1.715" fill="#ea8914" />
   <path d="M18.095 23.632h-.001 0 .001 0 0" fill="#eb8a14" />
   <path d="M18.094 23.631l-.381-.222h.001l.381.221h0 0" fill="#e68a1f" />
   <path d="M18.094 23.631h0 0 0" fill="#e78b1f" />
   <path d="M18.094 23.631l-.381-.221h0l.38.221" fill="#e78b1d" />
   <path d="M18.095 23.631h0 0 0 0" fill="#e78c1d" />
   <g fill="#e78b1d">
      <path d="M14.561 25.664l-.383-.223h-.001l3.536-2.031.381.222-2.981 1.715-.553.318" />
      <path d="M14.561 25.664h0l.552-.318 2.982-1.715h0 0l-3.534 2.032" />
   </g>
   <path d="M18.095 23.632h0 0 0" fill="#e78b1f" />
   <path d="M14.561 25.664h0l.553-.318-.552.318" fill="#e68c1f" />
   <path d="M18.093 27.722h0l-3.532-2.058 3.534-2.032-.002 4.09" fill="#e78b20" />
   <path d="M18.095 23.19h0 0 0m-3.917-2.282h0" fill="#ec8b14" />
   <path d="M14.178 21.351v-.443l.001.001.382.222-.383.22" fill="#ef8614" />
   <path d="M17.714 23.409l-3.536-2.058h0l.383-.22 3.533 2.058h0v.001l-.38.219" fill="#f08813" />
   <path d="M18.094 23.191v-.001h.001 0-.001" fill="#f18713" />
   <g fill="#f08814">
      <path d="M14.177 25.441h-.001l.001-1.813v1.813m3.536-2.031l-3.535-2.057h0l3.536 2.058" />
      <path d="M17.714 23.409l-3.536-2.058h0l3.536 2.058" />
      <path d="M14.178 25.441h0v-1.813l.001-2.275 3.535 2.057-3.536 2.031" />
   </g>
   <g fill="#f18713">
      <path d="M14.561 21.131l-.382-.222-.001-.001h0 0l.383.223h0" />
      <path d="M18.094 23.189h0l-3.533-2.058h0l3.533 2.058h0" />
      <path d="M18.094 23.189h0 0 0 0" />
      <path d="M18.095 23.19h-.001 0 .001 0" />
   </g>
   <path d="M18.095 23.632h0v-.001h0 0 0" fill="#ed9714" />
   <path d="M18.095 23.631h0v-.441h0 0 0 0l.381.222h-.001l-.381-.222v.441" fill="#f09c13" />
   <path d="M18.095 23.632h0" fill="#f09c14" />
   <path d="M18.477 23.412h0 0 0 0" fill="#f28b18" />
   <path d="M18.477 23.412h0 .001 0 0" fill="#f28c18" />
   <path d="M22.012 25.472l-3.535-2.059h0l.641.374 2.893 1.685h0 0 .001 0" fill="#f38a19" />
   <g fill="#ed9c1f">
      <path d="M18.095 23.632h0 0 0 0" />
      <path d="M18.095 23.632h0 0 0 0" />
   </g>
   <path d="M18.095 23.632h0 0 0" fill="#ed9d1f" />
   <g fill="#ed9c1f">
      <path d="M18.095 23.632h0 0" />
      <path d="M18.095 23.632h0 0 0 0 0" />
   </g>
   <g fill="#ec9c20">
      <path d="M18.094 27.722h0l.002-4.09h0l-.002 4.09" />
      <path d="M18.095 24.042v-.41h0 0v.41" />
      <path d="M18.095 23.632h0 0 0" />
   </g>
   <path d="M18.096 23.19h0 0l.033-.019.346-.199h0l-.38.218" fill="#f79613" />
   <path d="M22.012 25.471h0l-2.893-1.685 2.893 1.685" fill="#f79415" />
   <g fill="#ec8b19">
      <path d="M22.012 25.471h-.001 0 .001 0 0" />
      <path d="M22.012 25.471h0" />
   </g>
   <path d="M22.012 25.471h-.001 0 .001" fill="#ed8b19" />
   <g fill="#468680">
      <path d="M25.93 23.22l-.38-.221h0l.38.221" />
      <path d="M25.93 23.22h0l-.379-.221h0l.379.221v.001" />
      <path d="M25.93 23.22h0v-.001h0 0 0" />
   </g>
   <path d="M25.93 23.22h0 0 0" fill="#458680" />
   <g fill="#427f8d">
      <path d="M25.93 23.219l-.379-.221h0l.379.221" />
      <path d="M25.93 23.219h0 0 0 0" />
      <path d="M25.93 23.22h0 0 0 0" />
   </g>
   <g fill="#3f798c">
      <path d="M22.013 25.471h0l1.736-.998-1.736.998" />
      <path d="M22.013 25.471h0 0 0 0m0 0h0 0" />
      <path d="M22.013 25.472h0 0 0 .001 0-.001" />
   </g>
   <g fill="#3e7a8a">
      <path d="M25.552 23.437l-.38-.221.378-.217.38.221-.378.217" />
      <path d="M25.551 23.438l-.38-.221h.001l.38.221h-.001" />
      <path d="M25.551 23.437l-.38-.221h0l.38.221h0" />
      <path d="M22.013 25.471v-.44l.001.001h.001l3.156-1.815.38.221-3.537 2.033" />
      <path d="M22.013 25.471h0v-.395.396" />
      <path d="M22.013 25.471v-.441h.001v.44h-.001" />
   </g>
   <path d="M18.477 23.412l-.381-.222h.001l.381.222" fill="#46877e" />
   <g fill="#468680">
      <path d="M18.477 23.412h0 0" />
      <path d="M18.477 23.412h0 0 0" />
      <path d="M19.119 23.786l-.641-.374h0l.641.374" />
   </g>
   <g fill="#46877e">
      <path d="M18.477 23.412l-.381-.222h-.001l.38-.218.381.222-.38.218" />
      <path d="M18.477 23.412h0l.38-.219h0l-.38.218" />
      <path d="M18.477 23.412h0l.38-.218h0l-.38.219" />
      <path d="M22.012 25.471l-2.893-1.685-.641-.374.38-.218 3.155 1.836v.441" />
      <path d="M22.012 25.471h0v-.441h0v.441" />
   </g>
   <g fill="#458680">
      <path d="M22.012 25.471h0 0" />
      <path d="M22.012 25.471h0-.001v-.441h0v.441" />
      <path d="M22.013 25.471h0v-.441h0v.441" />
      <path d="M22.013 25.075v-.045.045" />
   </g>
   <g fill="#335a69">
      <path d="M22.012 25.91l-.379-.221.379-.218h0 0v.438" />
      <path d="M22.012 25.472h0" />
   </g>
   <path d="M18.552 27.902l3.461-1.991v.001l-3.461 1.99" fill="#315766" />
   <path d="M22.012 25.911l-.38-.221h0l.379.221h0" fill="#336975" />
   <g fill="#336875">
      <path d="M22.012 25.91l-.379-.221h0l.379.221h0" />
      <path d="M18.477 27.945l-.381-.222v-.002l3.536-2.031.38.221h0l-3.536 2.034" />
      <path d="M22.012 25.911l-.38-.221h.001l.38.221h0" />
   </g>
   <g fill="#336976">
      <path d="M18.095 27.723l-.002-.001h0 .001 0 .001v.001" />
      <path d="M18.095 27.723h0v-.001h0v.002" />
      <path d="M18.096 27.724h-.001v-.002h.001v.002" />
   </g>
   <g fill="#2f6472">
      <path d="M18.477 27.946h0l3.535-2.033h0l-3.535 2.033" />
      <path d="M18.477 27.946h0l.075-.043 3.461-1.99h0l-3.535 2.033" />
   </g>
   <path d="M22.011 30.004h0l-3.534-2.058 3.535-2.033-.002 4.091" fill="#2f6675" />
   <path d="M18.095 23.632h0 0 0 0 0" fill="#376561" />
   <path d="M18.096 23.631h0v-.441l.381.222-.381.219" fill="#376661" />
   <g fill="#366362">
      <path d="M18.419 23.445l.058-.033h0l-.058.033" />
      <path d="M18.096 23.631h0l.381-.219h0l-.058.033-.29.167-.033.019h0" />
      <path d="M21.633 25.689l-3.537-2.058h0l.033-.019.29-.167.058-.033 3.535 2.059-.379.218" />
      <path d="M18.095 23.631h0" />
   </g>
   <g fill="#376663">
      <path d="M18.095 23.632h0 0 0 0m0 0h0" />
      <path d="M18.096 23.631h0 0 .001 0-.001" />
      <path d="M21.632 25.69l-3.536-2.058h0 0 0 0 0 .001l3.537 2.058h0m-3.537-2.058h0 0 0 0" />
      <path d="M18.096 23.631h0 0" />
      <path d="M21.633 25.689l-3.537-2.058h0 0l3.537 2.058" />
      <path d="M18.095 23.631h0 0 0 0" />
      <path d="M18.096 27.721v-4.089h0l3.536 2.057-3.536 2.031" />
      <path d="M21.632 25.69l-3.536-2.057h0 0l3.536 2.058h-.001m-3.536-2.058h0 0 0m0 0h0 0 0m-.001 4.089h0-.001l.002-3.68-.001 3.68" />
      <path d="M18.095 27.722v-3.68-.41h0v4.09" />
      <path d="M18.095 23.632h0 0 0 0m.001 0h0 0 0m0 0h0 0 0" />
      <path d="M18.095 27.722v-4.09h.001l-.001 4.089" />
      <path d="M18.096 23.632h-.001 0 0 0 0 0 0 0" />
   </g>
   <path d="M22.014 25.911h0 0 .001-.001" fill="#294252" />
   <path d="M22.013 25.911h-.001 0 0 0" fill="#2b4f4f" />
   <g fill="#2b4354">
      <path d="M22.014 25.911h0-.001v-.439h0l.379.221-.379.218" />
      <path d="M22.012 25.91h0v-.438.438" />
      <path d="M22.013 25.91h0v-.438h0 0 0v.439" />
      <path d="M22.013 25.911h0 0-.001v-.439h.001v.439" />
   </g>
   <path d="M22.012 25.912v-.001h0 .001-.001" fill="#294251" />
   <path d="M22.012 25.911h0 0 0 0" fill="#294252" />
   <path d="M22.013 25.912h-.001 0 0 0 .001 0 0" fill="#294251" />
   <path d="M22.013 25.911h-.001 0 .001 0" fill="#294252" />
   <g fill="#2a4252">
      <path d="M22.013 25.911h0" />
      <path d="M22.014 25.911h0l.379-.218h0l-.379.218h0 0" />
      <path d="M22.013 25.911h0 0 0 .001l.033-.019.346-.199h0l-.379.218h0-.001" />
   </g>
   <path d="M25.552 27.97l-3.537-2.059h0l.379-.218 3.536 2.06h0 0 .001l-.378.217" fill="#274e5e" />
   <g fill="#2c535f">
      <path d="M22.012 25.911h0 0 0 0" />
      <path d="M22.013 25.911h0 0 0 0" />
      <path d="M22.013 25.911h0 0 0 0" />
   </g>
   <g fill="#2c515f">
      <path d="M22.012 25.91h0 0 0 0" />
      <path d="M22.013 25.911h0 0 0 0" />
      <path d="M22.013 25.911h0 0 .001 0" />
      <path d="M22.012 25.911h0" />
      <path d="M22.012 25.911h0 0 0 0 0" />
      <path d="M22.012 25.911h0 0 0 0" />
      <path d="M22.013 25.911h0 0 0" />
   </g>
   <g fill="#274e5c">
      <path d="M22.012 25.913h0 .001 0 0 0l-.001.001" />
      <path d="M22.012 25.912h0 .001 0 0 0-.001" />
      <path d="M22.013 25.912h0 0 0 0" />
      <path d="M22.013 25.912h0 0 0 0 0 0" />
      <path d="M22.013 25.912h0 0 0" />
      <path d="M22.014 25.912h0 .001 0 0" />
      <path d="M22.014 25.912h0 .001 0-.001" />
      <path d="M22.014 25.911h0 0 0" />
   </g>
   <g fill="#27505d">
      <path d="M22.014 25.911h0 0 0 0" />
      <path d="M22.014 25.912h0 0 0" />
   </g>
   <g fill="#274e5e">
      <path d="M25.552 27.971l-3.537-2.058h0 0l3.537 2.058" />
      <path d="M25.552 27.971l-3.537-2.058h0 0l3.537 2.059" />
   </g>
   <g fill="#274f5f">
      <path d="M25.552 27.97l-3.537-2.059h0l3.537 2.059" />
      <path d="M22.015 30.003v-4.09l3.537 2.058-3.537 2.032" />
      <path d="M22.012 30.004h0-.001l.002-4.091.001-.001-.002 4.092" />
      <path d="M22.013 30.003v-4.091h0v4.091h0m.001-4.091h-.001 0 0 .001 0" />
      <path d="M22.015 25.912h-.001 0 0 0" />
      <path d="M22.015 25.912h0 0 0" />
      <path d="M22.014 30.003v-4.091h0 0 .001l-.001 4.091" />
   </g>
   <path d="M25.931 23.659h-.001.001 0v.001" fill="#294457" />
   <g fill="#284357">
      <path d="M25.931 23.658h0 0 0m0 0l-.378-.22.378-.217h0v.437" />
      <path d="M23.494 25.06l2.436-1.402h.001l-2.436 1.401" />
      <path d="M25.93 23.658l-.378-.22h.001l.378.22h-.001" />
      <path d="M25.931 23.658l-.378-.22h0l.378.22h0" />
      <path d="M22.393 25.693l-.379-.221h0v-.001l.033-.019.288-.165 3.218-1.849.378.22-2.436 1.402-1.101.633" />
      <path d="M22.013 25.472h0 0" />
      <path d="M22.013 25.472h-.001 0 0 .001v.001m3.918-1.814h0m-3.538 2.034h0l.973-.559-.973.56" />
      <path d="M22.393 25.693h0l1.101-.633 2.436-1.401h0 0l-3.537 2.034" />
   </g>
   <g fill="#284458">
      <path d="M25.929 27.753l-3.536-2.06.973-.56 2.564-1.474-.002 4.094" />
      <path d="M23.366 25.134l2.564-1.475h0l-2.564 1.474" />
   </g>
   <path d="M25.931 23.221h0 0" fill="#284358" />
   <path d="M25.931 23.659h0 0 0" fill="#294458" />
   <path d="M25.931 23.659v-.001h0 0 0" fill="#294558" />
   <g fill="#2a4459">
      <path d="M25.931 23.659h0v-.438h.001v.437h0" />
      <path d="M25.931 23.658h0 0 0 0m0 0h0v-.437.438" />
      <path d="M25.931 23.658h0 0 0" />
      <path d="M25.931 23.659h0 0 0 0 0" />
      <path d="M25.931 23.659h0 0 0 0" />
      <path d="M25.931 23.659h0 0 0 0 0" />
      <path d="M25.931 23.659h0 0 0 0" />
      <path d="M25.931 23.659h0 0 0 0-.001" />
   </g>
   <g fill="#29455a">
      <path d="M25.93 27.753h-.001 0l.002-4.093h0 0l-.001 4.094" />
      <path d="M25.931 23.659h0 0 0 0" />
      <path d="M25.931 25.033v-1.374h.001 0 0 0v1.374" />
      <path d="M25.931 25.033v-1.374h0 0v1.374" />
   </g>
   <g fill="#2a4459">
      <path d="M25.931 23.221h-.001 0 .001v.001" />
      <path d="M25.931 23.221h0 0 0" />
   </g>
   <path d="M22.013 11.433h0 0 0l-3.917-2.28L22.012 6.9h0l3.917 2.28-3.168 1.822-.748.431h0 0 0 0-.001" fill="#a4bc1f" />
   <path d="M18.095 13.686h-.001 0 0 0 0m1.932-1.111l1.984-1.142h.001l-1.985 1.141" fill="#8b9f25" />
   <path d="M22.014 15.966h0 0 0 0" fill="#909f24" />
   <path d="M25.931 13.713h-.001.001 0 0 0" fill="#849125" />
   <path d="M25.931 13.712h0 0V9.18h0l-3.884 2.234.716-.412 3.169-1.822 3.917 2.279-3.364 1.935-.553.318" fill="#dc2f93" />
   <path d="M22.014 11.432h0 0m0 0h0l.748-.431-.748.431" fill="#e93b91" />
   <path d="M25.931 13.712h0 0 0m0 0l-3.917-2.28.032-.018L25.93 9.18h0v4.532m-3.917-2.28h0" fill="#e53692" />
   <path d="M22.014 15.966h0 0 0 .001 0m.347-.2l1.743-1.003-.082.048-1.661.955" fill="#cc1862" />
   <path d="M25.92 13.719l-.001-.001.01-.006h.001 0l-.01.006" fill="#ca1762" />
   <path d="M29.849 15.993l-.009-.006v-.001l.01.006h0 0m-.021-.012l-.001-.001h.001.001-.001m-1.972-1.148l-.094-.054-1.829-1.065h0l1.923 1.119m-1.924-1.12h0 0l.033-.019.52-.299 3.365-1.935h0l-3.917 2.253h0 0-.001m3.918-2.253h0" fill="#da0f62" />
   <path d="M29.849 15.993h0 0V11.46l3.917 2.28-3.917 2.253" fill="#92429b" />
   <path d="M29.849 15.993l-.01-.006v-.013h0l-.011.006h-.001l.011-.006-1.983-1.141-1.923-1.119h0l3.917-2.253v4.533" fill="#a539a0" />
   <path d="M29.849 20.526l-.01-.006.01-.006v.012h0 0" fill="#75238a" />
   <path d="M29.841 16.441v-.001l.008-.005v.001l-.008.004m.008-.006l-.008-.005-.002-.432.009-.006h0v.441" fill="#6a2380" />
   <path d="M29.841 16.44v-.01l.008.005v.001l-.008.005" fill="#7a2289" />
   <path d="M29.841 16.442h0l.008-.004h0l-.008.004" fill="#7a1f83" />
   <path d="M29.849 18.027l-.008-1.585.008-.004v1.59" fill="#75238a" />
   <path d="M25.932 18.246h0 0 0 0 0 0" fill="#7a2289" />
   <path d="M25.932 18.246h0" fill="#7c238a" />
   <path d="M29.448 16.201h-.001l.379-.221.001.001-.379.22" fill="#7a1f83" />
   <path d="M27.256 17.476l2.191-1.275h.001l-2.192 1.275" fill="#7c1e84" />
   <path d="M29.839 15.999v-.011l.009.006-.009.006m-2.078-1.22l-1.829-1.053v-.012l1.829 1.065" fill="#7a1f83" />
   <path d="M25.932 18.246h0 0 0" fill="#7c1e84" />
   <path d="M33.383 18.494l-3.532-2.058h0 0 0 0l-.002.001v-.001h.001-.001v-.441h0l.033-.019 3.884-2.234v.001-.001 4.533h0l-.384.221" fill="#7f2c8f" />
   <path d="M29.849 16.436v-.001h.001-.001" fill="#922997" />
   <path d="M29.849 16.437h0l.002-.001h0l-.002.001m.002-.001h0 0" fill="#922593" />
   <path d="M29.85 20.526h0-.001v-.012l.012-.007h0v-.001l-.011-2.265.001-1.805h0l3.532 2.058-3.533 2.032" fill="#8a2c98" />
   <path d="M29.849 20.526h0v-.012h0v.012m.001-2.285l-.001-.214v-1.59l.002-.001-.001 1.805" fill="#8c2b99" />
   <path d="M18.094 13.685l-3.916-2.279h0l3.917-2.253h0 0-.001l3.917 2.279h-.001l-3.917-2.28h0v4.531" fill="#accc1b" />
   <path d="M22.012 11.432l-3.917-2.279h.001l3.917 2.28" fill="#bada16" />
   <path d="M18.095 13.686h0 0 0 0V9.153h0l3.917 2.28-1.984 1.142-1.931 1.111h-.001 0 0m.001 0h0 0" fill="#b7d817" />
   <path d="M14.178 15.938h-.001 0 .001.001 0 0m1.921-1.105l1.995-1.148h0 .001l-1.996 1.148" fill="#a8c41d" />
   <path d="M18.095 13.686h-.001 0 .001 0" fill="#b1d01a" />
   <path d="M14.177 11.406h0" fill="#a8c41d" />
   <path d="M18.096 18.219h0 0 0 0" fill="#afc31c" />
   <path d="M22.013 15.966l-.001-.001h0 0 .001 0" fill="#abbe1d" />
   <path d="M22.013 15.965h-.001 0 0 0" fill="#b2b023" />
   <path d="M18.096 13.685h0" fill="#aabe1d" />
   <path d="M22.012 11.433h0 .001 0-.001" fill="#accc1b" />
   <path d="M22.013 11.433h0 0 0 .001 0 0 0 0m.001 0h0" fill="#bada16" />
   <path d="M18.527 13.438l1.501-.863 1.985-1.141h0l-3.486 2.005" fill="#b7d817" />
   <path d="M25.93 13.712l-3.916-2.279h0 0 0 0l3.917 2.279" fill="#b6d618" />
   <g fill="#c1cf1e">
      <path d="M22.013 11.433h0 0 0 0m0 0h0 0 0 0" />
      <path d="M25.931 13.712l-3.917-2.279h0 0 0 0l3.917 2.28" />
   </g>
   <g fill="#beca1b">
      <path d="M25.542 13.927l-3.526-2.053h0l-.003.001v-.442l3.916 2.279-.01.006-.01-.006-.368.214" />
      <path d="M22.014 15.965h0-.001v-4.09l.003-.001h0l3.526 2.053-1.438.836-2.09 1.202" />
   </g>
   <path d="M18.096 13.685h0 0 0l1.931-1.111-1.501.863-.398.229-.032.018h0 0" fill="#bbdd15" />
   <path d="M22.013 11.433h0 .001 0 0" fill="#b9d916" />
   <g fill="#bada16">
      <path d="M22.013 11.433h0 0 0 0 0" />
      <path d="M18.477 13.907l-.38-.221.032-.018.398-.229 3.486-2.005h0 0v.442l-3.536 2.031" />
      <path d="M22.012 15.964l-3.536-2.058 3.536-2.031v4.089" />
      <path d="M22.012 11.875v-.442h0 0v.442h0" />
      <path d="M22.013 15.964h0v-4.089h0v4.089m0-4.531h-.001 0" />
   </g>
   <g fill="#bbd916">
      <path d="M22.013 11.433h0" />
      <path d="M22.013 11.875v-.442h0 .001v.442h-.001" />
      <path d="M22.013 15.965h0 0-.001v-4.089h.001v4.09" />
   </g>
   <path d="M21.634 16.184h0l.379-.218h0l-.379.218" fill="#b4d319" />
   <path d="M21.633 16.184h0 0 0 0" fill="#b5d418" />
   <g fill="#b6d518">
      <path d="M21.634 16.184h0 0 0 0" />
      <path d="M18.439 18.021l.115-.066 3.08-1.771h0l-3.194 1.837" />
   </g>
   <path d="M22.013 15.966h0 0 0 0m0 0h0 0 0m0 0h0 0 0 0" fill="#b1d01a" />
   <path d="M18.095 13.685h0" fill="#b6d518" />
   <g fill="#b5d218">
      <path d="M18.096 18.218h0 0 0 .001 0m3.537-2.034h-.001l.379-.218h0 .001l-.379.218" />
      <path d="M21.633 16.184h-.001 0 .001 0" />
      <path d="M21.634 16.184h-.001 0 .001 0" />
      <path d="M18.554 17.955l3.079-1.771h.001l-3.08 1.771m3.458-1.99h0 0" />
      <path d="M22.013 15.966h-.001 0 0l.001.001h0 0 0 0" />
   </g>
   <path d="M25.931 18.246h-.001 0 .001 0" fill="#b4b525" />
   <g fill="#a9b128">
      <path d="M25.932 18.246h0 0 0" />
      <path d="M25.932 18.246h-.001 0 0 0 0" />
   </g>
   <g fill="#a9b127">
      <path d="M25.932 18.246h0 0 0z" />
      <path d="M25.932 18.246h0 0 0 0 0 0" />
   </g>
   <path d="M22.013 15.966h0 0 0 0 0" fill="#abbe1d" />
   <g fill="#b2b023">
      <path d="M22.025 15.972l-.01-.006h0 0l1.968-1.132-1.957 1.138" />
      <path d="M22.014 15.966h0 0l.033-.019.314-.181 1.661-.955-.04.023-1.968 1.132h0 0" />
   </g>
   <path d="M25.931 13.725l-.01-.006.01-.006h0v.012" fill="#b1af23" />
   <path d="M25.92 13.719h0l.01-.006h0l-.01.006" fill="#b2b023" />
   <path d="M25.931 13.725h0v-.012h.001 0 0 0 0 0-.001 0v.012" fill="#b4ae23" />
   <path d="M25.932 13.713h0 0 0" fill="#adb528" />
   <path d="M25.932 13.725h-.001v-.012h0 .001v.012" fill="#a9b127" />
   <path d="M29.826 15.98l-2.065-1.202.094.054 1.972 1.147" fill="#862391" />
   <path d="M29.827 15.98l-1.972-1.147 1.983 1.141-.011.006" fill="#812996" />
   <path d="M25.932 18.246h0l.014-.008-.014.008" fill="#7d2693" />
   <g fill="#7d2692">
      <path d="M29.447 16.201l-3.513-2.047-.002.001h0v-.001h-.001v-.428l1.829 1.053 2.065 1.202-.379.221" />
      <path d="M25.932 14.155v-.001h.001v.001" />
      <path d="M25.932 18.246h0v-.309l.002-3.782h0 0-.001 0l.002-.001 3.513 2.047-2.191 1.275-1.291.751-.019.011-.014.008" />
      <path d="M25.932 17.937v-3.781h.001 0 0l-.002 3.782" />
   </g>
   <g fill="#842591">
      <path d="M25.55 13.932h-.001l.37-.213.001.001-.37.213" />
      <path d="M24.022 14.811l.082-.048 1.446-.832h.001l-1.529.879" />
   </g>
   <g fill="#85338d">
      <path d="M25.55 13.931l-.008-.005.368-.214.01.006-.37.213" />
      <path d="M24.104 14.763l1.438-.836.008.005-1.446.832" />
   </g>
   <g fill="#84308e">
      <path d="M23.336 15.646l2.594-1.491v.001l-2.594 1.491m2.594-1.493l-.38-.222.37-.213.01.006v.428" />
      <path d="M22.395 16.187l-.37-.215 1.957-1.138 1.569-.902.38.222v.002l-3.536 2.032" />
      <path d="M22.487 16.135l.849-.488 2.594-1.491h0l-3.444 1.978" />
      <path d="M22.395 16.187h0l.941-.541-.941.541" />
      <path d="M25.931 18.245l-3.536-2.057.092-.053 3.444-1.978v4.089m-.38-4.314h0l.37-.213h0l-.37.213" />
      <path d="M23.982 14.834l.04-.023 1.529-.879h0l-1.569.902" />
   </g>
   <g fill="#83318e">
      <path d="M25.931 14.156v-.001h.001 0l-.001.001m.001-.002h-.001v-.428h.001v.428" />
      <path d="M25.931 14.155v-.002h.001v.001h-.001" />
      <path d="M25.932 18.246h0v-.309.309m-.001-4.089h0l.001-.001h0l-.001.001" />
      <path d="M25.932 18.246h0 0 0-.001v-4.089l.001-.001v4.09" />
   </g>
   <path d="M25.932 18.687v-.298l.002.297-.002.001" fill="#69257c" />
   <path d="M25.933 18.687h0 0l.002-.001h0-.001" fill="#6a2175" />
   <g fill="#64257c">
      <path d="M25.934 18.688l-.001-.001h0 .001v.001" />
      <path d="M25.934 18.689l-.002-.001h0l.002.001h0m-.002-.002h0 0 0" />
   </g>
   <g fill="#63267c">
      <path d="M25.934 18.689l-.002-.001h0 0 0l.001.001v.001" />
      <path d="M25.936 19.129l-.004-.002v-.438l.002.001.002.44" />
      <path d="M25.954 22.778l-.021-.012v-3.639l.004.002.018 3.649" />
   </g>
   <path d="M25.932 18.246h0 0 0" fill="#69257c" />
   <path d="M25.551 18.465h0l.38-.219h0 0l-.38.219" fill="#6a267c" />
   <path d="M25.55 18.465h0 0 0 0" fill="#6c2b6d" />
   <path d="M25.551 18.465h0 .001 0-.001" fill="#6d2b6e" />
   <g fill="#6c2a6d">
      <path d="M25.171 18.684h0l.38-.218h0l-.38.218" />
      <path d="M22.317 20.325l1.308-.753 1.545-.889h0l-2.854 1.641" />
   </g>
   <path d="M25.551 18.465h-.001l.38-.219h.001l-.38.219" fill="#672d71" />
   <g fill="#662d6f">
      <path d="M25.55 18.465h-.001 0 .001 0" />
      <path d="M25.55 18.465h-.001.001.001-.001" />
      <path d="M25.17 18.684h0l.379-.218h.001l-.38.218" />
      <path d="M23.625 19.572l1.545-.889h0l-1.545.889" />
   </g>
   <path d="M25.965 18.668h0l.348-.2h0l-.348.2" fill="#432052" />
   <path d="M25.934 18.686l-.002-.297v-.143h0l.381.222-.38.218" fill="#53205c" />
   <path d="M25.934 18.687h0l.031-.018.348-.2h0l-.38.218" fill="#531d58" />
   <g fill="#4d225e">
      <path d="M29.458 20.741l-3.524-2.053v-.001l.38-.218 3.525 2.052-.38.221" />
      <path d="M29.458 20.741l-3.524-2.052h0l3.524 2.053h0" />
      <path d="M29.458 20.741l-3.524-2.053v-.001l3.524 2.053h0" />
   </g>
   <g fill="#4c225e">
      <path d="M29.082 20.96l-3.146-1.831-.002-.44 3.524 2.052-.375.218" />
      <path d="M25.955 22.779h0-.001l-.018-3.649 3.146 1.831-3.128 1.819" />
   </g>
   <path d="M25.932 18.246h0 0 0 0" fill="#53205c" />
   <path d="M29.839 15.988l-.012-.007h.001l.011.006v.001" fill="#531d58" />
   <path d="M29.839 15.987l-.011-.006.011-.006h0v.013" fill="#4d225e" />
   <path d="M26.314 18.468h0l3.528-2.028v.001l-3.527 2.027m3.527-2.038l-.374-.218.372-.214.002.432" fill="#48205b" />
   <g fill="#49205b">
      <path d="M26.314 18.468l-.381-.222h0 0 0 0 0l.014-.008 3.521-2.025.374.218v.01l-3.528 2.028" />
      <path d="M26.314 18.468h0l3.527-2.027h0l-3.527 2.027" />
   </g>
   <path d="M29.839 20.52l-3.525-2.052 3.527-2.027.008 1.585v2.487l-.01.006" fill="#49205c" />
   <path d="M29.467 16.212l-.019-.011.379-.22.012.007v.011l-.372.214" fill="#49205b" />
   <path d="M25.946 18.238l.019-.011 1.291-.751 2.192-1.275.019.011-3.521 2.025" fill="#4a205b" />
   <g fill="#4b205d">
      <path d="M29.849 20.514l.001-2.273.011 2.265v.001h0l-.012.007" />
      <path d="M29.849 20.514v-2.487l.001.214-.001 2.273" />
   </g>
   <path d="M14.177 15.938l-3.917-2.28 3.917-2.252v4.532m3.917-2.253l-3.917-2.279h0l.001-.001 3.917 2.28" fill="#dbcc0f" />
   <path d="M18.094 13.685h0 0 0 0" fill="#e4d80b" />
   <path d="M18.094 13.685l-3.917-2.28h0l3.916 2.28" fill="#e9dd09" />
   <path d="M18.095 13.685h0 0 0 0" fill="#eade08" />
   <path d="M14.178 15.938h0-.001-.001v-4.532h0 0l3.917 2.279h0l-1.995 1.148-1.921 1.105h0 0" fill="#e7dc09" />
   <path d="M18.094 13.685h0" fill="#e9dd09" />
   <path d="M10.637 18.41l-.375-.218-.002-.001v-4.532h0l3.917 2.28h0 .001v.438l-3.541 2.034" fill="#e0a912" />
   <path d="M14.177 20.471l-3.54-2.06 3.541-2.034-.001 4.094" fill="#f3b80d" />
   <path d="M14.178 20.471h-.001l.001-1.205v1.206" fill="#f4b90e" />
   <path d="M14.178 15.938h-.001 0 .001 0" fill="#eeb80f" />
   <path d="M14.178 16.376v-.438h0v.438" fill="#d29e16" />
   <path d="M14.178 19.265v-2.889h0v2.889" fill="#e3ac11" />
   <path d="M14.179 20.471h0-.001v-1.206-.821 2.027h.001 0" fill="#e5ad10" />
   <path d="M14.557 16.158l-.379-.22h0l.379.22h0m-.379-.22h0 0 0 0v.001" fill="#dfac12" />
   <path d="M18.095 18.218l-3.538-2.059h0l3.538 2.06" fill="#e0ac12" />
   <g fill="#dfac12">
      <path d="M18.095 18.218h0v-.001h0 0 0 0" />
      <path d="M18.096 18.218h-.001 0 .001 0" />
   </g>
   <g fill="#e0ac12">
      <path d="M18.095 18.218h0 0 0" />
      <path d="M18.096 18.218h-.001 0 .001 0" />
   </g>
   <path d="M18.095 13.686h0 0" fill="#eaa710" />
   <path d="M18.095 13.686h0 0 0m.001 0h0 0 0 0 0 0 .001 0 0 0m0 0h0" fill="#efad0e" />
   <path d="M15.557 15.145l.542-.312 1.996-1.148h0 0l-2.538 1.46" fill="#edab0f" />
   <path d="M18.095 13.686h0 0" fill="#eeac0e" />
   <g fill="#edaa0f">
      <path d="M18.476 13.907l-.38-.221h0 0 0 0l.38.221h0" />
      <path d="M22.012 15.965l-3.536-2.058h0l3.536 2.058" />
      <path d="M22.012 15.965h0v-.001h0 0 0" />
   </g>
   <path d="M22.013 15.965h0 0 0" fill="#eea90f" />
   <path d="M18.095 13.686h0 0" fill="#eca90f" />
   <path d="M18.095 13.686h0 0 0" fill="#edaa0f" />
   <g fill="#efad0e">
      <path d="M18.096 13.685h0 0 0 0m0 0h0 0 0" />
      <path d="M18.477 13.907l-.38-.221h0l.38.221" />
      <path d="M22.012 15.964l-3.536-2.058h0l3.536 2.058" />
      <path d="M22.013 15.965h0 0 0 0" />
      <path d="M22.013 15.965h0 0 .001 0" />
   </g>
   <path d="M18.119 18.205l.435-.25-.115.066-.32.184" fill="#efac0e" />
   <path d="M18.096 13.686h0 0 0" fill="#eeac0e" />
   <path d="M18.096 13.686h0 0 0m0 0h0 0 0m0 0h0 0" fill="#efac0e" />
   <g fill="#eeac0e">
      <path d="M18.096 14.125v-.438h0l.379.221-.377.217h0 0 0 0l-.002.001" />
      <path d="M21.633 16.183l-3.535-2.059.377-.217 3.537 2.058-.379.218m-3.535-2.059h0 0 0" />
      <path d="M18.096 16.588v-2.464l.002-.001h0 0l3.535 2.059h0l-3.535-2.059h0l-.001 2.464m.002-2.464h0" />
      <path d="M21.633 16.184l-3.535-2.059h0 0 0 0l3.535 2.059h0" />
      <path d="M18.097 18.218h0-.001v-1.63l.001-2.464h0l3.535 2.059-3.536 2.034m.38-4.31l-.379-.221h0 0 0 0 0l.38.221h-.001" />
      <path d="M22.012 15.965l-3.537-2.058h.001l3.536 2.058h0 0" />
      <path d="M22.012 15.965h0 0 0" />
   </g>
   <path d="M14.179 15.938h0l1.921-1.105-.542.312-1.378.793" fill="#f3ac0d" />
   <g fill="#f2a80e">
      <path d="M18.095 13.686h0 0" />
      <path d="M18.096 13.686h0 0 0m0 0h0 0 0m0 0h0 0 0" />
      <path d="M14.557 16.158l-.379-.22.033-.019 1.346-.774 2.538-1.459v.439l-3.538 2.033" />
      <path d="M18.095 18.217l-3.538-2.059 3.538-2.033v4.092m0-4.531h0" />
      <path d="M18.095 14.125v-.44h0 0v.439" />
      <path d="M18.095 18.217h0v-4.092h0v4.092m0-4.531h0 0" />
      <path d="M18.096 13.686h0 0 0m0 0h0 0 0 0" />
      <path d="M18.096 13.686h0 0 0 0m0 0h0 0 0" />
      <path d="M18.095 14.125v-.439h.001v.438h-.001" />
      <path d="M18.095 18.217h0v-4.092h.001l-.001 4.093" />
      <path d="M18.096 18.218h-.001l.001-1.629v1.63m0-4.533h-.001 0 0 0 0" />
   </g>
   <path d="M18.096 18.657h-.001 0 .001 0 0" fill="#dd7c18" />
   <path d="M18.096 18.657h-.001 0 0 0 0" fill="#e88615" />
   <path d="M18.095 18.656l-.378-.22.378-.217v.437" fill="#ec8c14" />
   <path d="M18.096 18.657h0 0 0-.001v-.437h.001 0v.438" fill="#ed8d13" />
   <path d="M15.174 20.336l2.921-1.679h.001l-2.922 1.679" fill="#ec8b14" />
   <path d="M18.095 18.657l-.378-.22h0l.378.22v.001h0 0" fill="#ef8c13" />
   <path d="M18.095 18.657h0v-.001h0 0" fill="#f08c12" />
   <g fill="#f18d12">
      <path d="M18.095 18.656l-.378-.22h0l.378.22h0" />
      <path d="M18.096 18.656h0 0 .001 0" />
      <path d="M14.556 20.691l-.376-.219-.001-.001 3.538-2.035.378.22-3.539 2.034" />
   </g>
   <path d="M18.096 18.657h0 0 0 0" fill="#f18613" />
   <path d="M14.557 20.691h0l.617-.355 2.922-1.679h0l-3.54 2.033m3.54 2.061h0-.001l.001-2.055v2.055" fill="#f28713" />
   <path d="M14.557 20.691h0l.618-.355-.617.355" fill="#f28913" />
   <g fill="#f28713">
      <path d="M14.939 20.913l-.383-.223 3.54-2.033v.441l-.001.001h0 0l-3.155 1.814" />
      <path d="M18.096 19.099h-.001 0l.001-.001v.001" />
      <path d="M18.094 19.099h0" />
      <path d="M18.094 22.75l-3.155-1.836 3.155-1.814v3.651m.002-3.65l-.001-.001h0 0 .001.001v.001" />
      <path d="M18.096 19.099h-.001 0 .001 0" />
      <path d="M18.094 22.75h0v-3.651h0 0l.001.001-.002 3.65" />
      <path d="M18.096 19.098v-.441.441" />
      <path d="M18.096 19.099h0v-.001h0v.001" />
      <path d="M18.096 19.1h0v-.001h0v.001" />
      <path d="M18.096 19.099h0 0 0 0" />
      <path d="M18.095 22.75h0l.002-3.65h0l-.001 3.65" />
      <path d="M18.095 22.75h-.001l.001-3.272-.001 3.272" />
   </g>
   <path d="M18.096 18.219h0 0 0m-3.918-2.281h0" fill="#ec8b14" />
   <path d="M14.178 16.376v-.437h.001l.377.22-.377.217h0 0-.001" fill="#ef8614" />
   <g fill="#f18713">
      <path d="M17.718 18.436l-3.538-2.061h0l.377-.217 3.539 2.06h0 0 0 0l-.378.217" />
      <path d="M18.095 18.219h0 .001 0 0-.001m-3.916-1.843h0m-.001 2.068v-2.068h.001l-.001 2.068m3.539-.007l-3.538-2.061h0 .001l3.538 2.061" />
   </g>
   <path d="M17.717 18.436l-3.538-2.061h0l3.538 2.061h0" fill="#f18913" />
   <g fill="#f18713">
      <path d="M14.179 20.471h-.001v-2.027l.001-2.068h0 0l3.538 2.061-3.538 2.035m.377-4.313l-.377-.22h-.001v-.001h0l.379.22h-.001m3.539 2.06l-3.539-2.06h.001l3.538 2.059" />
      <path d="M18.095 18.218h0 0 0 0" />
      <path d="M18.096 18.219h0-.001 0 .001 0" />
   </g>
   <path d="M18.096 18.657h0" fill="#e48e15" />
   <path d="M18.096 18.657h0 0 0 0 0" fill="#ee9915" />
   <path d="M18.096 18.657h0v-.438h0l.001.001.378.22h0l-.379-.22h0v.438" fill="#f19e12" />
   <path d="M22.014 20.499h-.001 0 .001 0 0 0 0" fill="#f69713" />
   <path d="M18.475 18.439h0 0 0 0" fill="#f69912" />
   <g fill="#f69913">
      <path d="M18.856 18.661l-.381-.221h0l.381.221h-.001" />
      <path d="M22.013 20.498l-3.157-1.837h.001l3.156 1.837" />
      <path d="M22.013 20.498h0 0 0 0" />
      <path d="M22.014 20.498h-.001 0 .001 0 0" />
   </g>
   <path d="M18.096 18.657h0 0 0" fill="#f59813" />
   <g fill="#f69913">
      <path d="M18.096 18.657h0 0 0" />
      <path d="M18.096 18.657h0 0 0 0" />
      <path d="M18.096 18.657h0 0" />
   </g>
   <g fill="#f79813">
      <path d="M18.096 22.751h0v-2.055-.395 2.451m0-3.654v-.441h0v.441" />
      <path d="M18.096 19.099h0v-.001h0v.001" />
      <path d="M18.096 19.1h0v-.001h0z" />
      <path d="M18.096 19.099h0 0 0 0" />
      <path d="M18.096 19.478V19.1h0v.378" />
      <path d="M18.096 19.098v-.015.015" />
      <path d="M18.096 19.099h0v-.001.001" />
      <path d="M18.096 19.1h0v-.001.001" />
      <path d="M18.096 19.099h0 0 0" />
      <path d="M18.096 20.695v-1.217-.378h0v1.595" />
   </g>
   <path d="M18.096 18.219h0 0 0 0" fill="#f29c13" />
   <g fill="#f19e13">
      <path d="M21.635 16.184h0l.379-.218h0 0 0 0 0l-.379.218" />
      <path d="M21.634 16.185h0 0 0-.001" />
      <path d="M21.634 16.184h0 0 0 0" />
      <path d="M18.476 18.439l-.378-.22-.001-.001.023-.013.011-.006.309-.178 3.194-1.837h0l-3.537 2.034.379.22" />
   </g>
   <g fill="#f39d12">
      <path d="M18.476 18.439h0 0 0" />
      <path d="M18.857 18.661l-.381-.221h0l.381.221" />
      <path d="M22.013 20.497l-3.156-1.837h0l3.156 1.837" />
      <path d="M22.013 20.498h0 0 0 0" />
      <path d="M22.013 20.498h0-.001 0 .001 0" />
   </g>
   <path d="M22.013 15.966h0 0 0m0 0h0 0 0" fill="#f19d13" />
   <g fill="#f19e13">
      <path d="M18.096 18.218h0 0l.022-.013-.023.013m3.918-2.252h0" />
      <path d="M22.013 15.966h0 0 0" />
   </g>
   <g fill="#f29c13">
      <path d="M22.014 20.498h-.001 0 .001" />
      <path d="M22.013 20.498h0 0 0z" />
   </g>
   <g fill="#f09c14">
      <path d="M22.013 15.966h0 0 0-.001" />
      <path d="M22.013 15.966h0 0 0" />
   </g>
   <g fill="#f29914">
      <path d="M22.014 15.966h0 .001 0 0 0 0" />
      <path d="M22.014 15.966h0 0 0-.001" />
   </g>
   <path d="M22.015 20.499h0 0 0l.01-.006h0l-.01.006" fill="#f3a70e" />
   <g fill="#eeaa0f">
      <path d="M22.015 20.498v-2.069l.01 2.064-.01.006m.36-4.3l-.36-.207v-.001l.36.208" />
      <path d="M22.375 16.199h0 0 0-.001" />
      <path d="M25.931 18.246l-3.556-2.046h.001l3.548 2.042.008.005h0 0 0 0 0" />
   </g>
   <path d="M25.931 18.245l-.008-.005.008.005h0" fill="#eea90f" />
   <g fill="#eda90f">
      <path d="M25.931 18.245h0 0 0 0" />
      <path d="M25.931 18.245h0 0 0 0" />
   </g>
   <path d="M22.015 15.978v-.012h0l.01.006-.01.006" fill="#eeaa0f" />
   <path d="M22.025 15.972l-.01-.006h0 0l.01.006h0" fill="#eea90f" />
   <g fill="#ea9d15">
      <path d="M22.375 16.199l-.36-.208v-.013l.01-.006.37.215-.02.011" />
      <path d="M22.375 16.199h0l.02-.011h0l-.02.011" />
      <path d="M25.923 18.24l-3.548-2.042.02-.011 3.528 2.053" />
      <path d="M22.395 16.187l-.37-.215h0l.37.215h0" />
      <path d="M22.395 16.187h0 0 0 0" />
      <path d="M25.931 18.245l-.008-.005-3.528-2.053h0l3.536 2.058" />
      <path d="M25.931 18.245h0 0 .001 0" />
   </g>
   <path d="M22.024 20.493h0l1.6-.92-1.308.753-.269.155-.023.013" fill="#e89c14" />
   <g fill="#e79c13">
      <path d="M22.015 16.406v-.414l.36.207-.359.206h0 0v.001" />
      <path d="M22.016 16.405h0l.359-.206h0l-.359.206" />
      <path d="M25.55 18.464l-3.535-2.059.032-.018.327-.188 3.556 2.046-.38.219" />
      <path d="M22.015 16.406h0 0" />
      <path d="M22.015 16.406h0 0v-.001h0-.001 0 0 0 0" />
      <path d="M25.549 18.465l-3.534-2.059h0l3.535 2.059h0m-3.534-2.059h0 0 0 0" />
      <path d="M22.015 16.406h0 .001 0-.001 0 0" />
      <path d="M25.55 18.465l-3.535-2.059h0 .001l3.535 2.059h-.001m-3.535-2.059h0" />
      <path d="M25.17 18.683l-3.155-1.836v-.441l3.534 2.059-.379.218" />
      <path d="M22.024 20.492l-.01-2.064v-.223-1.358l3.155 1.836-1.545.889-1.6.92m-.009-4.086h0" />
      <path d="M22.015 16.406h0 0 0 0 0" />
      <path d="M22.015 16.801v-.395h0 0 0 0 0 0 0v.395" />
      <path d="M22.015 16.406h0 0 0 0" />
      <path d="M22.015 16.847h0v-.046-.395h0v.441" />
      <path d="M22.015 18.205v-1.359h0v1.358" />
   </g>
   <g fill="#f4a70e">
      <path d="M22.015 20.498h0 0m-.01-4.098l-.37-.216.379-.218v.012l-.01.006.01.006h0l-.011-.006h0l.002.415m-2.702 1.564l2.701-1.553h0l-2.701 1.552" />
      <path d="M22.005 16.401l-.371-.216h.001l.37.216v.001" />
      <path d="M22.005 16.4l-.37-.216h0l.37.216" />
      <path d="M18.476 18.439l-.379-.22 3.537-2.034.371.216v.01l-3.529 2.028" />
      <path d="M18.555 18.394l.749-.43 2.701-1.552h0l-3.45 1.982" />
      <path d="M18.476 18.439h0l.827-.476-.827.476" />
      <path d="M18.857 18.661l-.381-.221.079-.045 3.45-1.982.002.438-3.15 1.811" />
      <path d="M22.013 20.497l-3.156-1.837 3.15-1.811.007 1.365v2.283" />
      <path d="M22.013 20.497h0v-2.023 2.023" />
      <path d="M22.013 20.498h-.001v-1.202 1.202" />
      <path d="M22.015 20.498h0-.001v-2.085.016 2.069" />
      <path d="M22.013 18.475v-.26.021.24" />
      <path d="M22.013 19.296v-.821-.24.065.996" />
      <path d="M22.014 20.498h0v-1.202-.996.113 2.085" />
   </g>
   <path d="M22.015 15.992l-.001-.001h0 .001v.001m-.001-.013v-.012h.001 0v.012l-.001.001" fill="#f3a70e" />
   <path d="M22.015 15.966h0 0 0 0" fill="#f4a70e" />
   <g fill="#f3a60e">
      <path d="M22.013 15.991l-.01-.006.01-.006v.012" />
      <path d="M22.015 15.991h-.001v-.012l.001-.001v.013" />
   </g>
   <g fill="#f4a40e">
      <path d="M22.013 16.406h0 0 0" />
      <path d="M22.013 16.405l-.009-.005-.002-.415h0l.011.006v.414" />
      <path d="M22.005 16.411h0l.009-.005h0 0l-.009.005" />
      <path d="M22.013 16.406l-.009-.005V16.4l.009.005h0 0" />
      <path d="M22.013 16.405l-.009-.005h0l.009.005h0" />
      <path d="M22.005 16.411v-.01l.009.005-.009.005" />
      <path d="M22.005 16.412h0l.009-.005h0l-.009.005" />
      <path d="M22.007 16.849l-.002-.438.009-.005v.44h-.001 0 0l-.006.003" />
      <path d="M22.013 18.214l-.007-1.365.006-.003h0 0 .001v1.368m.001-1.808h0 0 0 0 0-.001" />
      <path d="M22.014 16.406h0 0 0-.001v-.414l.001.001v.414" />
      <path d="M22.013 16.406h0 0 0" />
      <path d="M22.013 16.406h0 0 0" />
      <path d="M22.014 16.405h0 0 .001 0" />
      <path d="M22.014 16.406h0 .001 0 0-.001" />
      <path d="M22.015 16.406h0 0" />
      <path d="M22.013 16.407h0 0 0-.001m.003 2.022v-.016-.207.223" />
      <path d="M22.014 16.406h0 0 .001 0 0" />
      <path d="M22.014 16.847h-.001v-.44h.001 0v.44" />
      <path d="M22.014 18.235v-.021-1.368h.001v1.388" />
      <path d="M22.014 16.847h0v-.44h0v.441" />
      <path d="M22.014 18.3v-.065-1.388h0V18.3" />
      <path d="M22.015 16.847h0v-.046.046" />
      <path d="M22.014 18.413V18.3v-1.453h0v1.566" />
   </g>
   <path d="M22.014 20.938h0 0 0 0m0 0h0" fill="#ee7618" />
   <path d="M22.013 20.938h-.001 0 0 0 0" fill="#ec8814" />
   <g fill="#f28613">
      <path d="M22.014 20.938h0 0 0 0" />
      <path d="M22.014 20.938h0v-.439h.001 0 0v.439h0 0 0 0 0 0" />
   </g>
   <g fill="#f28713">
      <path d="M22.012 20.937l-.378-.22.378-.217v.438" />
      <path d="M22.013 20.937h0V20.5h0v.438" />
      <path d="M22.013 20.938h0 0 0-.001v-.438h.001v.439" />
   </g>
   <path d="M18.475 22.971h0l.017-.01 1.031-.592-1.047.602" fill="#f18513" />
   <path d="M22.014 20.938h0 0" fill="#f28214" />
   <path d="M21.633 21.157h-.001l.38-.218h0 .001l-.38.218" fill="#f18413" />
   <g fill="#f18513">
      <path d="M21.632 21.158h-.001.001.001 0" />
      <path d="M21.632 21.157h-.001 0 .001-.001" />
      <path d="M18.492 22.962l3.139-1.804h.001l-3.14 1.804" />
   </g>
   <g fill="#f18413">
      <path d="M22.012 20.938h0 0 0 0" />
      <path d="M22.013 20.939h-.001 0 0 0 .001 0 0" />
      <path d="M22.013 20.938h-.001 0 .001 0" />
   </g>
   <path d="M22.013 20.938h0" fill="#f28613" />
   <path d="M22.013 20.938h0 0" fill="#f28514" />
   <path d="M22.013 20.938h0" fill="#f28613" />
   <path d="M22.014 20.938h0 0 0 0" fill="#f28514" />
   <path d="M22.014 20.938h0 0 0" fill="#ea7e1b" />
   <g fill="#f28713">
      <path d="M22.012 20.938l-.378-.22h0l.378.22h0" />
      <path d="M22.013 20.938h0 0 0 0" />
      <path d="M22.013 20.938h0 0 0 0" />
      <path d="M22.012 20.937l-.378-.22h0l.378.22" />
      <path d="M22.013 20.938h0 0 0 0" />
      <path d="M22.013 20.938h0 0 .001 0m-3.539 2.033h0l.017-.01-.017.01" />
      <path d="M21.632 21.157l-.379-.22.38-.219.379.221-.38.218" />
      <path d="M21.631 21.157l-.379-.221h0l.379.221h-.001" />
      <path d="M21.632 21.157l-.379-.221h0l.379.22h0" />
      <path d="M18.475 22.971l-.377-.219-.002-.001h0 .001 0l3.155-1.814.379.221-3.156 1.814m3.537-2.034l-.379-.221h.001l.378.22" />
      <path d="M22.012 20.938h0 0 0 0" />
      <path d="M22.013 20.938h0 0 0" />
   </g>
   <g fill="#f28514">
      <path d="M22.014 20.938h0 0 0 0 0 0 0" />
      <path d="M22.014 20.938h0 0 0 0m0 0h0 0 0 0" />
   </g>
   <g fill="#f28614">
      <path d="M22.014 20.938h0 0" />
      <path d="M22.014 20.938h0 0 0 0" />
      <path d="M22.014 20.938h0 0" />
      <path d="M22.014 20.938h0 0 0" />
      <path d="M21.633 21.157h0l.38-.219h0 0l-.38.219" />
      <path d="M21.632 21.158h0 0 0-.001" />
      <path d="M21.633 21.158h0 .001 0-.001" />
      <path d="M18.476 22.972h0l1.047-.602 2.109-1.212h0l-3.157 1.814" />
      <path d="M21.633 21.157h0l.38-.218h0 0 0l-.38.219" />
      <path d="M21.632 21.158h0 0 0 0" />
      <path d="M21.632 21.158h0 .001 0-.001" />
      <path d="M19.523 22.37l2.109-1.212h0l-2.109 1.212m2.49-1.431h0 0" />
   </g>
   <path d="M22.014 20.938h0" fill="#f28513" />
   <g fill="#f28614">
      <path d="M22.013 20.939h0 0 0 0 0 0" />
      <path d="M22.013 20.939h0 0 0" />
      <path d="M22.014 20.939h0 0 0 0 0 0 0" />
      <path d="M22.014 20.939h0 0 0 0 0" />
      <path d="M22.013 20.939h0 0" />
   </g>
   <path d="M22.014 20.939h0 0" fill="#f18514" />
   <g fill="#dd841b">
      <path d="M22.014 21.378v-.014.014" />
      <path d="M22.014 21.378h0 0" />
      <path d="M22.014 21.379h0v-.001.001" />
      <path d="M22.014 21.38h0v-.001.001" />
      <path d="M22.014 21.379h0 0 0" />
      <path d="M22.014 25.031h0l-.001-.001v-1.598l.001-2.053h0v3.651" />
      <path d="M22.013 25.03h-.001v-1.597 1.598" />
   </g>
   <g fill="#de851a">
      <path d="M22.012 21.379h-.001.001.001 0-.001" />
      <path d="M22.013 21.379h0-.001 0l-.379-.221.38-.219v.44h-.001 0 0" />
      <path d="M19.035 23.091l2.976-1.712h.001l-2.977 1.712" />
      <path d="M22.013 21.379h0 0" />
      <path d="M22.011 21.379l-.379-.221h.001l.379.221h-.001" />
      <path d="M22.012 21.378l-.379-.221h.001l.379.221h0" />
      <path d="M18.857 23.193l-.381-.222 3.157-1.814.379.221-3.154 1.815" />
      <path d="M22.012 21.379h0 .001 0-.001" />
      <path d="M22.013 21.379h0 0 0 .001 0 0m0 0h0 0 0" />
      <path d="M18.857 23.194h0l.179-.103 2.977-1.712h0l-3.155 1.814" />
      <path d="M22.013 21.379h0 0 0 0" />
      <path d="M22.013 21.379h0 0 0 0m-3.156 1.814h0l.179-.103-.179.103" />
      <path d="M22.013 21.379h0 .001 0 0 0" />
      <path d="M22.013 21.379h0 0 0 0 0m0 0h0" />
      <path d="M22.012 25.03l-3.155-1.836 3.155-1.814h0 0v3.65" />
      <path d="M22.012 23.658v-2.279h0 0v1.372.907m.001-2.279h0 0 0 0 0" />
      <path d="M22.013 21.379h0 0 0" />
      <path d="M22.013 21.379h0 0 0 0" />
      <path d="M22.013 22.751v-1.372h0 0v1.372" />
      <path d="M22.013 21.378v-.44h0v.439h0m0-.439h0 0 0 0-.001 0" />
      <path d="M22.013 21.379h0 0 0 0 0" />
      <path d="M22.013 21.379h0 0" />
      <path d="M22.013 21.379h0 0 0 0" />
      <path d="M22.013 21.379h0m-.001 3.651h0v-1.372 1.372" />
      <path d="M22.012 23.829v-.171-.907.256.821m.001-2.449h0 0 0 0 0 0" />
      <path d="M22.013 21.379h0 0 0" />
      <path d="M22.013 21.379h0" />
      <path d="M22.013 23.007v-.256-1.372h0v1.628m.001-2.068h0 0v.001" />
      <path d="M22.014 20.939h0 0 0" />
      <path d="M22.014 21.378h0v-.44h0 0 0 .001v.425.014h-.001" />
      <path d="M22.014 21.378h0 .001 0 0" />
      <path d="M22.014 21.379h0 0v.001" />
      <path d="M22.013 21.379h0 0 0" />
      <path d="M22.014 21.38l-.001-.001h0 .001v.001" />
      <path d="M22.013 21.379h0 0 0 0 0 0" />
      <path d="M22.014 21.379h-.001 0 0 0 0" />
      <path d="M22.013 23.433v-2.054l.001.001-.001 2.053m-.001 1.597h0v-1.201 1.201" />
      <path d="M22.013 25.03h0v-1.201-.821 2.023m.001-3.651h0 0 0 0" />
      <path d="M22.013 21.379h0 0" />
      <path d="M22.013 21.379h0 0 0 0" />
      <path d="M22.013 25.03v-2.023-1.628h0v3.651" />
   </g>
   <g fill="#f28613">
      <path d="M18.096 18.657h0 0 0" />
      <path d="M18.096 18.657h0v-.438h0l.379.22-.379.218" />
   </g>
   <g fill="#f28614">
      <path d="M22.014 20.499v-.001h.001-.001m-3.917-1.841h0l.378-.217h0l-.379.218" />
      <path d="M18.478 18.878l-.381-.222h0l.033-.019.346-.199.381.221-.378.217" />
      <path d="M21.634 20.717l-3.156-1.839.378-.217 3.157 1.837v.002l-.378.217" />
      <path d="M22.013 20.5v-.002h0v.001h0" />
      <path d="M22.013 20.499v-.001h.001v.001h-.001m-3.917-1.842h0" />
      <path d="M18.097 18.657h0 0 .001 0 0" />
      <path d="M18.096 18.657h0" />
      <path d="M18.477 18.879l-.38-.221h0 0 0 0 0 0 0 0 0 0l.381.222h0" />
      <path d="M21.634 20.717l-3.157-1.838h0l3.156 1.839h0m-3.536-2.061h0" />
      <path d="M18.478 18.878l-.381-.222h0l.381.222h0" />
      <path d="M21.634 20.717l-3.156-1.839h0l3.156 1.839h0m-3.537-1.619v-.44h0l.38.221-.38.219" />
      <path d="M21.253 20.936L18.097 19.1v-.002l.38-.219 3.156 1.839-.38.219" />
      <path d="M21.252 20.937L18.097 19.1h0l3.156 1.837" />
      <path d="M21.253 20.936L18.097 19.1h0l3.156 1.837" />
      <path d="M18.097 22.751h0-.001V20.3l.001-1.2 3.156 1.837-3.155 1.814m.379-3.872l-.38-.221h0 0l.38.221" />
      <path d="M21.633 20.718l-3.156-1.839h0l3.157 1.838h-.001m-3.536-2.06h0 0 0m-.001.426v-.426h0v.426" />
      <path d="M18.097 18.657h0 0 0m0 0h0 0 0 0" />
      <path d="M18.096 19.098v-.015-.426h0v.44h-.001" />
      <path d="M18.097 19.1h-.001v-.001h.001v.002" />
      <path d="M18.097 19.1h-.001v-.001h.001 0" />
      <path d="M18.097 19.1h-.001 0 .001 0" />
      <path d="M18.096 20.3v-1.2h.001l-.001 1.2m.001-1.642h0 0 0" />
   </g>
   <path d="M22.316 20.765l.07-.04h0l-.07.04" fill="#f4891a" />
   <g fill="#f69713">
      <path d="M22.014 20.938h0l.371-.213h0l-.07.04-.302.173" />
      <path d="M22.014 20.938v-.439h0 0l.01-.006v.024l.002.001.359.207-.371.213" />
   </g>
   <path d="M22.014 20.938h0l.033-.019.269-.154.07-.04h0l-.371.213" fill="#f79614" />
   <path d="M25.931 22.78v-.015l.002.001v.013l-.002.001" fill="#f08e1d" />
   <g fill="#f18f1d">
      <path d="M22.762 20.948l.006-.003h0l-.006.003" />
      <path d="M22.394 21.16l-.38-.221h0 0 0 0l.371-.213.382.22-.006.003-.368.212" />
      <path d="M22.394 21.16h0l.368-.212.006-.003h0l-.374.215" />
      <path d="M22.394 21.16h0l.368-.212-.368.212" />
      <path d="M25.551 22.998l-3.156-1.839.374-.215 3.162 1.82v.016l-.379.218" />
      <path d="M25.93 22.78v-.016h0v.015h0" />
      <path d="M25.931 22.78v-.015h0v.015h0" />
      <path d="M25.93 22.78v-.015h.001v.015h-.001" />
   </g>
   <path d="M22.015 20.939h0 0 0" fill="#f79713" />
   <path d="M22.015 20.939h0 0 0 0" fill="#f79614" />
   <g fill="#e6961a">
      <path d="M22.393 21.16l-.379-.221h0 0l.379.221" />
      <path d="M22.394 21.16h0 0 0" />
      <path d="M22.394 21.16h0 0 0 0" />
      <path d="M25.55 22.999l-3.156-1.839h0l3.156 1.839" />
      <path d="M22.394 21.16l-.379-.221h0 0l.379.221h0" />
      <path d="M22.394 21.16h0 0 0 0" />
      <path d="M22.394 21.16h0 0 0 0" />
      <path d="M25.55 22.999l-3.156-1.839h0l3.156 1.839h0" />
   </g>
   <g fill="#e5961a">
      <path d="M22.394 21.16l-.379-.221h0l.38.221" />
      <path d="M22.394 21.16h0 0 0 0" />
      <path d="M22.394 21.16h0 0 0 0" />
      <path d="M25.551 22.998l-3.156-1.839h0l3.156 1.839h0" />
   </g>
   <g fill="#e39519">
      <path d="M22.014 21.378v-.014-.425l.379.221-.379.218" />
      <path d="M22.046 21.36h0l.348-.2h0l-.348.2" />
      <path d="M22.014 21.378h0l.379-.218h0l-.348.2-.032.018" />
      <path d="M25.172 23.216l-3.158-1.838v-.001l.032-.018.348-.2 3.156 1.839-.378.217" />
      <path d="M25.171 23.217l-3.157-1.837v-.001l3.157 1.837" />
      <path d="M25.171 23.217l-3.157-1.837h0l3.158 1.838" />
      <path d="M22.015 25.031h-.001V21.38l3.157 1.837-3.156 1.815" />
   </g>
   <g fill="#e6961a">
      <path d="M22.014 20.939h0 0 0z" />
      <path d="M22.015 20.939h0 0 0 0 0" />
      <path d="M22.014 20.939h0 0 0" />
      <path d="M22.014 21.364v-.425h0v.425" />
   </g>
   <path d="M25.931 18.688v-.001h.001-.001" fill="#e98b17" />
   <path d="M25.931 18.687h-.001 0 .001 0" fill="#ea8c17" />
   <g fill="#eb8b18">
      <path d="M25.932 18.687h-.001v-.441h0v.143.298h0 0m0 0h0 0" />
      <path d="M25.931 18.687h0-.001.001l-.38-.221.38-.219v.441m-3.545 2.037h0l.158-.091 1.555-.893-1.713.984" />
      <path d="M25.931 18.688h0 0" />
      <path d="M25.552 18.906l-.001-.001.379-.218h.001 0l-.379.218" />
      <path d="M22.544 20.634l3.007-1.729.001.001-3.009 1.728" />
   </g>
   <g fill="#eb8c18">
      <path d="M25.93 18.687l-.38-.221h0l.38.221h0" />
      <path d="M25.931 18.687l-.38-.221h.001l.38.221h-.001m-3.545 2.038h0l.158-.091-.158.091" />
      <path d="M25.551 18.905l-.38-.221.38-.218.38.221-.379.218" />
      <path d="M22.385 20.725l-.359-.207-.002-.001v-.024l.023-.013.269-.155 2.854-1.641.38.221-3.165 1.82m3.547-2.037h0 0 .001" />
      <path d="M25.932 18.687h0 0 0 0 0" />
      <path d="M25.552 18.906h0l.379-.218h0 0l-.379.218" />
      <path d="M22.386 20.725h0l1.713-.984 1.453-.835h0l-3.167 1.819" />
      <path d="M25.552 18.906h0l.379-.218h0l-.379.218" />
      <path d="M24.099 19.741l1.453-.835h0l-1.453.835m1.833-1.053h0 0 0 0-.001" />
   </g>
   <g fill="#eb8b18">
      <path d="M25.932 18.688h0 0 0m0-.001h0 0" />
      <path d="M25.932 18.688h0 0 0" />
      <path d="M25.932 19.127h0v-.438.438" />
      <path d="M25.932 22.766l-.002-.001.001-3.639h0v3.639" />
      <path d="M22.768 20.945h0l3.162-1.819-.377-.22.379-.218v.438h-.001l-3.163 1.819" />
      <path d="M22.768 20.945l-.382-.22 3.167-1.819.377.22-3.162 1.819" />
      <path d="M25.931 20.954v-1.827h0l-3.162 1.819h0l3.163-1.819h.001l-.001 1.827" />
      <path d="M25.93 22.765l-3.162-1.82 3.162-1.819h0l-.001 3.638" />
      <path d="M25.932 19.126h0v-.438h0v.439" />
      <path d="M25.931 21.407v-.454l.001-1.827-.001 2.281" />
      <path d="M25.93 22.765h0l.001-1.811-.001 1.811m.002-4.077h-.001 0 .001 0 0" />
      <path d="M25.932 18.688h0 0 0" />
      <path d="M25.932 19.127h-.001v-.439h0 0 .001v.438" />
      <path d="M25.931 22.765h0v-1.358l.001-2.281h.001l-.001 3.639" />
      <path d="M25.931 22.765h-.001l.001-1.358v1.358" />
   </g>
   <path d="M25.932 18.389v-.143h0 0v.143" fill="#e98a16" />
   <path d="M25.932 18.246h0 0 0" fill="#e78a15" />
   <path d="M10.928 34.44l-.761.594c-.395-.013-1.17.076-1.59.229-.387-.245-.727-.516-.727-.516l-.473.793c-.271.144-.543.306-.785.521l-.62-.253c.373.753.624 1.507 1.307 1.961 1.087-1.717 6.139-1.559 7.249-.01.717-.374.996-1.179 1.278-1.922l-.663.234c-.149-.162-.499-.41-.698-.53l-.463-.813-.702.506c-.509-.094-1.126-.208-1.644-.18l-.707-.613z" fill="#f3d400" />
   <path d="M6.358 37.408l.897 2.172c1.558 2.055 5.535 2.198 7.269.04l.964-2.224c-.445.659-1.169 1.114-1.615 1.359-.317.174-1.048.278-1.048.278l-1.919-.995-1.93.975s-.721-.116-1.048-.269c-.659-.352-1.102-.768-1.57-1.337z" fill="#ffe953" />
</svg>
