<?xml version="1.0" encoding="UTF-8"?>
<svg xmlns="http://www.w3.org/2000/svg" xmlns:v="https://vecta.io/nano" xmlns:xlink="http://www.w3.org/1999/xlink" width="172.071" height="196.414" viewBox="0 0 45.527 51.968">
   <g transform="matrix(.2822 0 0 .2822 -212.833275 -150.656248)">
      <path d="M835.432 533.821l-12.483 9.783c-6.482-.207-19.197 1.251-26.086 3.769-6.346-4.04-11.923-8.5-11.923-8.5l-7.762 13.071c-4.444 2.375-8.906 5.046-12.883 8.58l-10.162-4.17c6.125 12.414 10.243 24.844 21.445 32.316 17.834-28.299 100.705-25.691 118.907-.16 11.764-6.165 16.339-19.429 20.965-31.674-.507.168-6.802 2.285-10.882 3.849-2.436-2.665-8.179-6.763-11.443-8.741-3.096-5.696-7.602-13.391-7.602-13.391s-5.337 3.988-11.523 8.34c-8.357-1.55-18.465-3.433-26.966-2.967-5.787-4.779-11.603-10.104-11.603-10.104z" fill="#f3d400" />
      <g opacity=".9" transform="matrix(.9375 0 0 .9375 765.1166 550.13225)">
         <path d="M99.952 106.898l.215-.107 24.755-14.248-24.97-14.535-24.97 14.374z" fill="#cc2a65" />
         <use xlink:href="#B" fill="#a21d4c" />
         <path d="M124.922 92.542l-24.755 14.248-.215.107v28.89l24.97-14.356z" fill="#b62454" />
         <path d="M50.012 106.737l.215-.125 24.755-14.248-24.97-14.517-24.97 14.356z" fill="#c8d92b" />
         <path d="M50.012 135.609v-28.872l-24.97-14.535v28.89h.018z" fill="#c2d02f" />
         <path d="M74.982 92.381l-24.755 14.23-.215.125v28.872.018h.018l24.952-14.356v-.018z" fill="#b9be33" />
         <path d="M74.982 121.253l.215-.107 24.755-14.248-24.97-14.535-24.97 14.374z" fill="#cc2a65" />
         <use xlink:href="#B" x="-24.97" y="14.356" fill="#a21d4c" />
         <path d="M99.952 106.898l-24.755 14.248-.215.107v28.89H75l24.952-14.356z" fill="#b62454" />
         <path d="M124.905 121.415l.215-.125 24.737-14.23-24.952-14.535-24.97 14.356z" fill="#a159a2" />
         <path d="M124.905 150.305v-28.89l-24.97-14.535v28.89h.018z" fill="#772a86" />
         <path d="M149.875 107.059l-24.755 14.23-.215.125v28.89l24.97-14.356z" fill="#8e3b95" />
         <path d="M74.982 92.345l.215-.125 24.737-14.248-24.952-14.517-24.97 14.356z" fill="#bec831" />
         <path d="M74.982 121.217V92.345L50.012 77.81v28.89h.018z" fill="#a1a938" />
         <path d="M99.952 77.989l-24.755 14.23-.215.125v28.872.018l24.97-14.356v-.018z" fill="#999b37" />
         <path d="M75 60.645l.197-.125 24.755-14.23L75 31.755 50.029 46.11l24.952 14.535z" fill="#bec831" />
         <path d="M74.982 89.535L75 60.645 50.029 46.11 50.012 75h.018z" fill="#a1a938" />
         <path d="M99.97 46.307L75.197 60.52l-.197.125h-.018v28.89l24.97-14.338v-.018z" fill="#999b37" />
         <path d="M99.952 75.179l.215-.107 24.755-14.23L99.97 46.306 75 60.644z" fill="#ee539a" />
         <path d="M99.952 104.069v-28.89L75 60.644l-.018 28.89H75z" fill="#d01b68" />
         <path d="M124.922 60.841l-24.755 14.23-.215.107v28.89l24.97-14.338.018-28.89z" fill="#ec0f68" />
         <path d="M124.923 89.731l.215-.125 24.755-14.23-24.952-14.535h-.018l-24.97 14.338z" fill="#a159a2" />
         <path d="M124.905 118.622l.018-28.89-24.97-14.535v28.872.018z" fill="#772a86" />
         <path d="M149.893 75.376l-24.755 14.23-.215.125-.018 28.89h.018l24.97-14.356z" fill="#8e3b95" />
         <path d="M50.03 75l.197-.125 24.755-14.23L50.03 46.109 25.06 60.447l24.952 14.535z" fill="#c8d92b" />
         <path d="M50.012 103.872L50.03 75 25.06 60.447l-.018 28.89h.018z" fill="#c2d02f" />
         <path d="M75 60.644l-24.773 14.23-.197.125-.018 28.872 24.97-14.338z" fill="#b9be33" />
         <path d="M74.982 89.534l.215-.125 24.755-14.23L75 60.644l-24.97 14.338z" fill="#f7af19" />
         <path d="M74.982 118.425v-.018.018-28.89L50.029 75l-.018 28.872.018.018z" fill="#f2901f" />
         <path d="M99.952 75.179l-24.755 14.23-.215.125v28.89l24.97-14.356.018-28.89z" fill="#f9a120" />
         <path d="M99.934 135.769l.215-.125 24.684-14.356-25.042-14.409L74.91 121.36z" fill="#833593" />
         <path d="M100.077 164.66l-.143-28.89-25.042-14.409.143 28.89h.018z" fill="#652977" />
         <path d="M124.833 121.288l-24.684 14.356-.215.125.143 28.89 24.899-14.481z" fill="#4d1f5b" />
         <path d="M99.952 104.069l.215-.107 24.755-14.23L99.97 75.179h-.018l-24.97 14.356z" fill="#a159a2" />
         <path d="M99.934 132.959l.018-28.89-24.97-14.535v28.89z" fill="#772a86" />
         <path d="M124.922 89.732l-24.755 14.23-.215.107-.018 28.89h.018l24.97-14.338z" fill="#8e3b95" />
         <path d="M25.042 121.074l.197-.125 24.755-14.248-24.952-14.517h-.018L.071 106.54l24.952 14.535z" fill="#f6dd03" />
         <path d="M25.024 149.947h.018v-28.872L.071 106.54v28.89z" fill="#f9bb1d" />
         <path d="M49.994 106.719l-24.755 14.23-.197.125v28.872.018l24.952-14.356h.018v-.018-28.872z" fill="#e9ae20" />
         <path d="M25.06 89.338l.197-.125 24.755-14.23L25.06 60.447.089 74.803l24.952 14.535z" fill="#f6dd03" />
         <path d="M25.042 118.228l.018-28.89L.089 74.803.072 103.675l.018.018z" fill="#f9bb1d" />
         <path d="M50.03 75L25.257 89.212l-.197.125-.018 28.89 24.97-14.356v.018-.018z" fill="#e9ae20" />
         <path d="M50.012 135.59l.215-.107 24.737-14.248L50.012 106.7l-24.97 14.374z" fill="#f7af19" />
         <path d="M50.012 164.481v-28.89l-24.97-14.517v28.872.018z" fill="#f2901f" />
         <path d="M74.964 121.235l-24.755 14.248-.197.107v28.89l24.97-14.356v-28.89z" fill="#f9a120" />
         <path d="M50.012 103.872l.215-.107 24.755-14.23L50.03 74.982 25.06 89.338z" fill="#f7af19" />
         <path d="M50.012 132.763v-28.89L25.06 89.338l-.018 28.89h.018z" fill="#f2901f" />
         <path d="M74.982 89.535l-24.755 14.23-.215.107v28.89l24.97-14.338.018-28.89z" fill="#f9a120" />
         <path d="M74.982 150.125l.197-.125 24.755-14.23-24.952-14.535h-.018l-24.952 14.356 24.952 14.535z" fill="#f7af19" />
         <path d="M74.964 179.015h.018v-28.89l-24.97-14.517v28.872.018z" fill="#f2901f" />
         <path d="M99.934 135.77L75.179 150l-.197.125v28.89l24.97-14.356v-28.89z" fill="#f9a120" />
         <path d="M74.982 118.425l.215-.125 24.755-14.23L75 89.535h-.018l-24.97 14.338z" fill="#31838b" />
         <path d="M74.964 147.297l.018-28.872-24.97-14.535v-.018 28.89.018z" fill="#22626c" />
         <path d="M99.952 104.069L75.197 118.3l-.215.125-.018 28.872v.018h.018l24.97-14.356z" fill="#1b4b56" />
         <path d="M74.982 28.962l.215-.125 24.737-14.248L74.982.072l-24.97 14.356 24.97 14.517z" fill="#bec831" />
         <path d="M74.982 57.834V28.962l-24.97-14.535v28.89h.018z" fill="#a1a938" />
         <path d="M99.952 14.606l-24.755 14.23-.215.125v28.872l24.97-14.356z" fill="#999b37" />
         <path d="M74.964 28.944l.215-.125 24.755-14.23L74.982.054h-.018l-24.97 14.338z" fill="#a159a2" />
         <path d="M74.946 57.835l.018-28.89-24.97-14.535v28.872.018z" fill="#772a86" />
         <path d="M99.934 14.589l-24.755 14.23-.215.125-.018 28.89h.018l24.97-14.356z" fill="#8e3b95" />
         <path d="M99.952 43.479l.215-.107 24.755-14.248-24.97-14.535-24.97 14.356z" fill="#ee539a" />
         <use xlink:href="#B" y="-63.419" fill="#d01b68" />
         <path d="M124.922 29.123l-24.755 14.248-.215.107v28.89l24.97-14.356z" fill="#ec0f68" />
         <path d="M50.03 43.317l.215-.125L75 28.961 50.048 14.427h-.018L25.06 28.765z" fill="#31838b" />
         <path d="M50.012 72.189l.018-28.872-24.97-14.535v-.018 28.89.018z" fill="#22626c" />
         <path d="M75 28.961l-24.755 14.23-.215.125-.018 28.872v.018h.018L75 57.852z" fill="#1b4b56" />
         <path d="M124.923 58.013l.215-.125 24.737-14.23-24.952-14.535-24.97 14.356z" fill="#cc2a65" />
         <use xlink:href="#B" x="24.971" y="-48.884" fill="#a21d4c" />
         <path d="M149.893 43.658l-24.755 14.23-.215.125v28.89l24.97-14.356z" fill="#b62454" />
         <path d="M74.982 57.835l.215-.107 24.755-14.248-24.97-14.535L50.012 43.3z" fill="#c8d92b" />
         <path d="M74.982 86.725v-28.89l-24.97-14.517V72.19l.018.018z" fill="#c2d02f" />
         <path d="M99.952 43.479L75.197 57.727l-.215.107v28.89H75l24.952-14.356z" fill="#b9be33" />
         <path d="M99.952 72.369l.215-.125 24.755-14.23-24.97-14.535-24.97 14.356z" fill="#33b4d7" />
         <use xlink:href="#B" y="-34.529" fill="#209ac5" />
         <path d="M124.922 58.014l-24.755 14.23-.215.125v28.89h.018l24.952-14.356z" fill="#0f8cae" />
         <path d="M25.06 57.673l.197-.125L50.012 43.3 25.06 28.783h-.018L.089 43.139l24.952 14.535z" fill="#94d6e3" />
         <path d="M25.042 86.546h.018V57.673L.089 43.139v28.89z" fill="#73ccdd" />
         <path d="M50.012 43.318l-24.755 14.23-.197.125v28.872.018l24.952-14.356h.018v-.018-28.872z" fill="#3bafbb" />
         <path d="M50.03 72.19l.215-.107 24.737-14.248L50.03 43.318 25.06 57.674z" fill="#94d6e3" />
         <path d="M50.03 101.08V72.208v-.018L25.06 57.674v28.872.018z" fill="#73ccdd" />
         <path d="M74.982 57.835L50.227 72.083l-.197.107v28.89L75 86.725v-28.89z" fill="#3bafbb" />
         <path d="M75 86.724l.197-.107 24.755-14.248L75 57.834h-.018L50.029 72.189l24.952 14.535z" fill="#33b4d7" />
         <path d="M74.982 115.614H75v-28.89l-24.97-14.517v28.872.018z" fill="#209ac5" />
         <path d="M99.952 72.368L75.197 86.617l-.197.107v28.89l24.97-14.356v-28.89z" fill="#0f8cae" />
      </g>
      <path d="M759.126 567.007s10.273 21.02 16.364 35.698c25.549 33.869 90.792 36.224 119.235.656 9.484-17.619 16.733-36.357 16.733-36.357-7.297 10.862-20.094 18.056-27.408 22.095-5.197 2.861-17.189 4.59-17.189 4.59l-31.482-16.393-31.663 16.065s-11.832-1.91-17.189-4.426c-10.811-5.799-19.735-12.549-27.401-21.928z" fill="#ffe953" />
   </g>
   <defs>
      <path id="B" d="M99.952 135.788v-28.89l-24.97-14.517v28.872l.018.018z" />
   </defs>
</svg>
